<?xml version="1.0" encoding="UTF-8" standalone="no"?>
<!-- Created with Inkscape (http://www.inkscape.org/) -->

<svg
   width="47.903564mm"
   height="12.151959mm"
   viewBox="0 0 47.903565 12.151959"
   version="1.1"
   id="svg1"
   inkscape:version="1.4.2 (ebf0e940, 2025-05-08)"
   sodipodi:docname="CruiserFlow.svg"
   inkscape:export-filename="CruiserFlow.png"
   inkscape:export-xdpi="836.08002"
   inkscape:export-ydpi="836.08002"
   xmlns:inkscape="http://www.inkscape.org/namespaces/inkscape"
   xmlns:sodipodi="http://sodipodi.sourceforge.net/DTD/sodipodi-0.dtd"
   xmlns="http://www.w3.org/2000/svg"
   xmlns:svg="http://www.w3.org/2000/svg">
  <sodipodi:namedview
     id="namedview1"
     pagecolor="#ffffff"
     bordercolor="#000000"
     borderopacity="0.25"
     inkscape:showpageshadow="2"
     inkscape:pageopacity="0.0"
     inkscape:pagecheckerboard="0"
     inkscape:deskcolor="#d1d1d1"
     inkscape:document-units="mm"
     inkscape:zoom="4.9123443"
     inkscape:cx="96.796961"
     inkscape:cy="2.0356879"
     inkscape:window-width="1920"
     inkscape:window-height="1027"
     inkscape:window-x="1470"
     inkscape:window-y="25"
     inkscape:window-maximized="1"
     inkscape:current-layer="layer1"
     showgrid="false" />
  <defs
     id="defs1" />
  <g
     inkscape:label="Ebene 1"
     inkscape:groupmode="layer"
     id="layer1"
     transform="translate(-49.068593,-78.269325)">
    <g
       id="g6"
       inkscape:label="logo-group"
       transform="matrix(2.3819187,0,0,2.3819187,-100.90823,-116.55836)">
      <g
         id="g4"
         style="fill:#483737"
         inkscape:label="CruiserFlowGroup">
        <path
           style="font-weight:bold;font-size:3.52777px;font-family:'Oleo Script Swash Caps';-inkscape-font-specification:'Oleo Script Swash Caps Bold';letter-spacing:0px;word-spacing:0px;fill:#483737;stroke-width:8.55092"
           d="m 63.865911,85.685706 c -0.268978,0.02497 -0.486423,-0.04912 -0.652333,-0.222257 -0.165911,-0.173137 -0.248867,-0.413048 -0.248867,-0.719732 0,-0.309198 0.05781,-0.594854 0.173452,-0.856967 0.115635,-0.264628 0.281547,-0.486159 0.497734,-0.664593 0.216188,-0.178436 0.454999,-0.279786 0.716435,-0.304051 0.07541,-0.007 0.155856,-0.0032 0.241325,0.01154 0.180994,-0.132434 0.360733,-0.206933 0.539213,-0.223498 0.0905,-0.0084 0.174709,-0.0024 0.252637,0.01802 0.08044,0.01767 0.139517,0.04362 0.177223,0.07782 -0.02011,0.09739 -0.04776,0.181655 -0.08295,0.252795 l -0.01508,0.03534 c -0.11815,-0.07702 -0.245097,-0.109227 -0.380841,-0.09663 -0.07039,0.0065 -0.14706,0.02873 -0.230014,0.06659 0.115635,0.114958 0.173453,0.285558 0.173453,0.511801 0,0.223729 -0.05908,0.437858 -0.177224,0.642387 -0.118149,0.202015 -0.27149,0.311772 -0.460026,0.329271 -0.11815,0.01097 -0.214931,-0.02782 -0.290345,-0.116339 -0.07542,-0.08852 -0.113122,-0.206945 -0.113122,-0.35526 0,-0.301656 0.106833,-0.58809 0.320511,-0.859304 -0.170938,0.03095 -0.314226,0.176225 -0.429861,0.435822 -0.113122,0.256852 -0.169683,0.533593 -0.169683,0.830222 0,0.540469 0.134489,0.79822 0.403467,0.773255 0.201104,-0.01866 0.42609,-0.172779 0.674957,-0.46234 l 0.177221,0.134394 c -0.03268,0.05834 -0.08924,0.135229 -0.169682,0.230679 -0.08044,0.09293 -0.160883,0.172045 -0.241325,0.237328 -0.07793,0.06505 -0.179737,0.127291 -0.305427,0.186719 -0.123177,0.0592 -0.250124,0.09486 -0.380842,0.106993 z m 0.539211,-1.430126 c 0.07541,-0.007 0.137003,-0.0743 0.184765,-0.201913 0.05027,-0.130357 0.07541,-0.275977 0.07541,-0.436861 0,-0.160883 -0.03394,-0.274625 -0.10181,-0.341227 -0.208645,0.222984 -0.312969,0.476506 -0.312969,0.760567 0,0.07541 0.01383,0.131948 0.04148,0.169602 0.02765,0.03766 0.06536,0.05426 0.113121,0.04983 z m 0.701355,1.29236 -0.03016,0.0028 c -0.0076,-0.03449 -0.01131,-0.08819 -0.01131,-0.161091 0,-0.07541 0.03016,-0.27052 0.0905,-0.585318 0.06284,-0.317545 0.09426,-0.496429 0.09426,-0.536649 0,-0.04273 -0.01131,-0.08442 -0.03394,-0.125054 -0.02263,-0.04314 -0.04525,-0.07498 -0.06787,-0.09551 l -0.03394,-0.03079 0.0076,-0.05727 c 0.150829,-0.06177 0.400952,-0.108859 0.750372,-0.14129 0.03267,0.0598 0.05279,0.132099 0.06033,0.216872 0.153343,-0.185171 0.289089,-0.28324 0.407238,-0.294205 0.153343,-0.01423 0.237554,0.107412 0.252637,0.364934 -0.005,0.0055 -0.01134,0.01492 -0.01886,0.02815 -0.0076,0.01075 -0.02514,0.03125 -0.05279,0.06146 -0.02765,0.03022 -0.05656,0.05804 -0.08673,0.08347 -0.08547,0.06575 -0.175966,0.108083 -0.271492,0.127008 -0.0025,2.28e-4 -0.02009,-0.02579 -0.05279,-0.07806 -0.03016,-0.0525 -0.05655,-0.07771 -0.07918,-0.07561 -0.02011,0.0019 -0.05908,0.02811 -0.116892,0.07872 -0.0076,0.04595 -0.02262,0.12402 -0.04525,0.234213 -0.0201,0.109961 -0.03645,0.200718 -0.04902,0.27227 -0.03771,0.189523 -0.05656,0.347128 -0.05656,0.472819 l 0.0037,0.112774 c -0.110607,0.053 -0.330566,0.09478 -0.659875,0.125346 z m 1.425329,-0.460342 c 0,-0.105582 0.03267,-0.282065 0.09804,-0.529457 0.06787,-0.247624 0.10181,-0.399089 0.10181,-0.454393 0,-0.0553 -0.04524,-0.131545 -0.135745,-0.228727 l 0.0076,-0.05727 c 0.228756,-0.07151 0.496477,-0.121499 0.803161,-0.149964 0.02011,0.04087 0.03016,0.107807 0.03016,0.20082 0,0.09301 -0.0352,0.272243 -0.105582,0.537699 -0.06787,0.265221 -0.101809,0.421714 -0.101809,0.469476 0,0.06536 0.03142,0.09512 0.09426,0.08929 0.04273,-0.004 0.09679,-0.02533 0.16214,-0.06407 0.0076,-0.04093 0.03016,-0.148597 0.06787,-0.323039 0.08799,-0.387752 0.131975,-0.675894 0.131975,-0.86443 0.115635,-0.061 0.312969,-0.104456 0.592002,-0.130355 l 0.101809,-0.0094 c 0,0.113121 -0.03394,0.337486 -0.101809,0.673094 -0.06536,0.335375 -0.0993,0.528317 -0.10181,0.578826 0,0.05028 0.01131,0.07437 0.03394,0.07227 l 0.184765,-0.06617 0.06787,0.182235 c -0.0729,0.06458 -0.178481,0.129688 -0.31674,0.195309 -0.138259,0.06562 -0.260179,0.10333 -0.365759,0.11313 -0.155856,0.01447 -0.252637,-0.0394 -0.290345,-0.161587 -0.208646,0.145055 -0.408493,0.226448 -0.599542,0.244181 -0.238813,0.02217 -0.358219,-0.08365 -0.358219,-0.317428 z m 2.926071,-1.38017 c 0,0.110608 -0.03142,0.285721 -0.09426,0.525337 -0.06284,0.237103 -0.09426,0.390848 -0.09426,0.461234 0,0.07039 0.01382,0.1043 0.04147,0.101733 0.02765,-0.0026 0.07793,-0.0198 0.150829,-0.05171 l 0.03394,-0.01823 0.06787,0.182237 c -0.08547,0.07329 -0.192306,0.141023 -0.320511,0.2032 -0.12569,0.06194 -0.240068,0.09769 -0.343134,0.107256 -0.10306,0.0096 -0.184764,-0.01176 -0.245096,-0.06398 -0.05782,-0.05245 -0.08673,-0.132725 -0.08673,-0.240818 0,-0.110607 0.03016,-0.280575 0.0905,-0.509905 0.06284,-0.232074 0.09426,-0.378278 0.09426,-0.438609 0,-0.09301 -0.03267,-0.177961 -0.09804,-0.254851 l -0.03016,-0.03868 0.01131,-0.06515 c 0.130718,-0.05235 0.384612,-0.09602 0.761683,-0.131022 0.04022,0.04151 0.06033,0.118834 0.06033,0.231955 z m -0.282803,-0.505421 c -0.113121,0.0105 -0.202362,-0.01138 -0.267721,-0.06565 -0.06284,-0.0545 -0.09426,-0.128256 -0.09426,-0.221264 0,-0.09553 0.03896,-0.178325 0.116892,-0.248404 0.08044,-0.07283 0.177224,-0.114485 0.290345,-0.124984 0.113121,-0.0105 0.201105,0.0077 0.26395,0.05468 0.06284,0.04696 0.09426,0.118196 0.09426,0.213723 0,0.09552 -0.03896,0.182097 -0.116892,0.259716 -0.07542,0.07739 -0.170939,0.121448 -0.286574,0.132181 z m 1.787314,1.270753 c 0,0.155856 -0.0729,0.294597 -0.218702,0.416223 -0.143286,0.118881 -0.311712,0.187301 -0.505275,0.205266 -0.193563,0.01796 -0.353189,1.06e-4 -0.47888,-0.05359 -0.123177,-0.05393 -0.184765,-0.109797 -0.184765,-0.167615 0,-0.06034 0.03771,-0.139248 0.113122,-0.236743 0.07793,-0.100245 0.157112,-0.16164 0.237554,-0.184188 0.115635,0.05211 0.219958,0.181943 0.312969,0.389501 0.0729,-0.0068 0.109351,-0.03403 0.109351,-0.0818 0,-0.0352 -0.01005,-0.06694 -0.03016,-0.09524 -0.02011,-0.0283 -0.03519,-0.05078 -0.04525,-0.06745 -0.01005,-0.01666 -0.02765,-0.0389 -0.05279,-0.06675 -0.02514,-0.03034 -0.04399,-0.05248 -0.05656,-0.0664 -0.06284,-0.06958 -0.119402,-0.133461 -0.169682,-0.19164 -0.120663,-0.139629 -0.180994,-0.266005 -0.180994,-0.379126 0,-0.115635 0.03645,-0.213285 0.10935,-0.292953 0.125691,-0.139869 0.310455,-0.22112 0.554294,-0.243752 0.153343,-0.01423 0.275262,0.0046 0.36576,0.05655 0.0905,0.04941 0.135746,0.133202 0.135746,0.25135 0,0.115635 -0.06913,0.255284 -0.207389,0.418945 0.128204,0.136415 0.192306,0.26621 0.192306,0.389387 z M 70.70975,83.806168 c 0.03016,-0.05057 0.04524,-0.0947 0.04524,-0.132404 0,-0.03771 -0.01634,-0.06511 -0.04902,-0.08218 -0.03267,-0.01707 -0.07165,-0.02351 -0.116891,-0.01931 -0.04524,0.0042 -0.08044,0.01878 -0.105583,0.04374 -0.02263,0.02221 -0.03394,0.05091 -0.03394,0.0861 0,0.0352 0.05404,0.108107 0.16214,0.218736 0.0352,-0.02841 0.06787,-0.06664 0.09804,-0.114682 z m 0.392155,0.48019 c 0,-0.311712 0.09426,-0.563044 0.282803,-0.753995 0.19105,-0.191185 0.426091,-0.299727 0.705123,-0.325625 0.193563,-0.01797 0.348163,0.01042 0.463798,0.08516 0.118149,0.07199 0.177223,0.178373 0.177223,0.319145 0,0.10306 -0.03142,0.197737 -0.09426,0.284011 -0.06284,0.08628 -0.139514,0.15498 -0.230014,0.206114 -0.19105,0.103198 -0.356961,0.170132 -0.497734,0.200795 l -0.09426,0.02006 c 0.02765,0.163344 0.110604,0.238601 0.248867,0.225768 0.06034,-0.0056 0.126949,-0.02435 0.199847,-0.05626 0.0729,-0.03442 0.130719,-0.06744 0.173453,-0.09905 l 0.0641,-0.04366 0.120663,0.150942 -0.04148,0.04533 c -0.01508,0.01648 -0.05153,0.05004 -0.109351,0.10065 -0.0553,0.04787 -0.114377,0.09106 -0.177223,0.12957 -0.06034,0.03828 -0.138262,0.07442 -0.233784,0.108427 -0.09552,0.03652 -0.191049,0.0592 -0.286575,0.06807 -0.213673,0.01983 -0.379584,-0.02636 -0.497733,-0.138568 -0.115637,-0.114955 -0.173455,-0.290582 -0.173455,-0.526879 z m 0.697582,-0.211803 c 0.0729,-0.01681 0.1458,-0.08266 0.2187,-0.197522 0.0729,-0.117373 0.109352,-0.212511 0.109352,-0.285412 0,-0.07541 -0.02137,-0.111138 -0.0641,-0.107171 -0.06284,0.0058 -0.12066,0.06022 -0.173454,0.163156 -0.05279,0.102936 -0.08295,0.245255 -0.0905,0.426949 z m 1.055801,0.754188 -0.03016,0.0028 c -0.0076,-0.03449 -0.01131,-0.08819 -0.01131,-0.161091 0,-0.07541 0.03016,-0.27052 0.0905,-0.585318 0.06284,-0.317545 0.09426,-0.496429 0.09426,-0.536649 0,-0.04273 -0.01131,-0.08442 -0.03394,-0.125054 -0.02263,-0.04314 -0.04525,-0.07498 -0.06787,-0.09551 l -0.03394,-0.03079 0.0076,-0.05727 c 0.150829,-0.06177 0.400953,-0.10886 0.750373,-0.141291 0.03267,0.0598 0.05279,0.132099 0.06033,0.216872 0.153343,-0.185171 0.289088,-0.283239 0.407237,-0.294205 0.153343,-0.01423 0.237555,0.107412 0.252638,0.364934 -0.005,0.0055 -0.01134,0.01492 -0.01886,0.02815 -0.0076,0.01075 -0.02514,0.03125 -0.05279,0.06146 -0.02765,0.03022 -0.05655,0.05804 -0.08673,0.08347 -0.08547,0.06575 -0.175966,0.108083 -0.27149,0.127007 -0.0025,2.29e-4 -0.0201,-0.02579 -0.05279,-0.07805 -0.03016,-0.0525 -0.05655,-0.07771 -0.07918,-0.07561 -0.02011,0.0019 -0.05908,0.02811 -0.116892,0.07872 -0.0076,0.04595 -0.02262,0.12402 -0.04524,0.234213 -0.02011,0.10996 -0.03645,0.200718 -0.04902,0.27227 -0.03771,0.189522 -0.05656,0.347128 -0.05656,0.472819 l 0.0037,0.112774 c -0.110607,0.053 -0.330566,0.09478 -0.659875,0.125345 z"
           id="text4"
           aria-label="CruiserFlow"
           sodipodi:nodetypes="ssscsscsccccscscsssccsscccccssscscssssccscscsccccsccscccscccccscccscccscsscccsccccccsscsccscssccccscscsccccssscscssscssscscscccssscssscscscsssssscscssscscsscccsccccscccscsscsssssccscscsccccsccscccscccccsc" />
        <path
           d="m 75.43371,83.596552 c -0.03785,-0.0012 -0.06662,0.0075 -0.08673,0.01179 -0.06284,0.38039 -0.196074,0.706983 -0.399696,0.979776 -0.201104,0.272559 -0.427346,0.420504 -0.678727,0.443836 -0.155857,0.01446 -0.284061,-0.02265 -0.384613,-0.11136 -0.100548,-0.08619 -0.150829,-0.203445 -0.150829,-0.35176 0,-0.196077 0.08673,-0.388891 0.26018,-0.578443 0.175966,-0.192297 0.398438,-0.348691 0.667416,-0.469182 0.01005,-0.106513 0.01508,-0.221357 0.01508,-0.344534 0,-0.12569 -0.005,-0.227032 -0.01508,-0.304028 -0.03016,0.0078 -0.07541,0.01459 -0.135746,0.02019 -0.17848,0.01657 -0.315483,-0.0072 -0.411008,-0.07121 -0.09552,-0.06655 -0.143286,-0.153869 -0.143286,-0.261963 0,-0.108093 0.04902,-0.208167 0.147057,-0.300223 0.100548,-0.0948 0.235042,-0.150019 0.403466,-0.165651 0.261436,-0.02426 0.470081,0.05692 0.625938,0.243561 0.04022,-0.02133 0.128201,-0.07475 0.26395,-0.160244 0.324281,-0.208578 0.556808,-0.319401 0.697582,-0.332467 0.140773,-0.01306 0.248867,0.04478 0.324281,0.173522 0.07541,0.128747 0.113121,0.278589 0.113121,0.449527 -0.01005,0.02104 -0.0553,0.05792 -0.135746,0.110635 -0.118149,-0.08958 -0.265207,-0.126213 -0.441173,-0.109881 -0.175966,0.01633 -0.395925,0.07194 -0.659874,0.166828 0.05028,0.146162 0.07542,0.32608 0.07542,0.539753 0,0.01508 -0.0013,0.03657 -0.0037,0.06445 v 0.0641 c 0.113121,-0.02558 0.224985,-0.04351 0.335592,-0.05378 0.113121,-0.01047 0.211161,-0.01458 0.294117,-0.01222 0.0025,0.0098 0.0037,0.03485 0.0037,0.07507 0,0.03771 -0.01005,0.09143 -0.03016,0.16117 -0.02011,0.06723 -0.04147,0.116969 -0.0641,0.149236 -0.143287,-0.03447 -0.304745,-0.02065 -0.486422,-0.0265 z m -1.406475,0.903536 c 0.02044,0.05943 0.01634,0.107832 0.04902,0.134967 0.03268,0.02713 0.07039,0.03871 0.113121,0.03475 0.08798,-0.0081 0.173452,-0.08397 0.256408,-0.227416 0.08296,-0.145959 0.143287,-0.353921 0.180994,-0.623884 -0.186022,0.09016 -0.333079,0.199341 -0.441173,0.327522 -0.105582,0.127948 -0.193528,0.251847 -0.158369,0.354062 z m 0.248866,-1.968784 c -0.02036,0.02225 0.01759,0.05869 0.05279,0.08561 0.03771,0.02666 0.08422,0.03743 0.139517,0.03229 0.0553,-0.0051 0.10306,-0.01459 0.143287,-0.02838 -0.04777,-0.151423 -0.120665,-0.222586 -0.218702,-0.213486 -0.04022,0.0037 -0.07039,0.01784 -0.0905,0.04234 -0.01759,0.02174 -0.0044,0.05753 -0.02639,0.08163 z m 2.975093,1.820384 c -0.08044,0.07785 -0.186022,0.147986 -0.31674,0.210392 -0.130718,0.0624 -0.250124,0.09862 -0.358217,0.108656 -0.105583,0.0098 -0.192306,-0.01231 -0.260179,-0.06636 -0.06787,-0.05654 -0.10181,-0.142634 -0.10181,-0.258272 0,-0.115635 0.06285,-0.443235 0.188537,-0.982801 0.128203,-0.542312 0.192305,-0.941672 0.192305,-1.198081 0,-0.0553 -0.0076,-0.124985 -0.02263,-0.209059 0.236298,-0.0873 0.465054,-0.141201 0.68627,-0.161732 0.02263,0.03813 0.03394,0.102429 0.03394,0.192928 0,0.170939 -0.0641,0.550188 -0.192307,1.137749 -0.12569,0.584815 -0.188535,0.921213 -0.188535,1.009196 0,0.08798 0.01508,0.130574 0.04524,0.127775 0.02514,-0.0024 0.07918,-0.0237 0.162141,-0.06407 l 0.04148,-0.0227 z m 0.697585,0.191663 c -0.196077,0.0182 -0.350675,-0.02904 -0.463796,-0.141718 -0.113121,-0.115191 -0.169683,-0.285909 -0.169683,-0.512151 0,-0.276519 0.0817,-0.517886 0.245097,-0.7241 0.163397,-0.208729 0.378328,-0.325459 0.644791,-0.350191 l 0.169682,-6.67e-4 c 0.06034,-0.02319 0.116894,-0.03724 0.169682,-0.04213 0.12569,-0.01166 0.214931,0.02279 0.267721,0.103359 0.0553,0.08034 0.08673,0.19934 0.09426,0.35701 0.105583,-0.01483 0.206132,-0.04053 0.301656,-0.07701 l 0.05279,-0.01998 c 0.01759,0.01596 0.03016,0.06758 0.03771,0.154868 l 0.0037,0.04113 c -0.113121,0.06831 -0.251381,0.126403 -0.414778,0.174243 -0.0553,0.271597 -0.164654,0.506733 -0.328052,0.705405 -0.163398,0.198674 -0.367016,0.309326 -0.610856,0.331958 z m 0.07542,-0.734747 c 0,0.233784 0.05908,0.345192 0.177223,0.334227 0.08295,-0.0077 0.167167,-0.06831 0.252637,-0.181819 0.08798,-0.113747 0.148314,-0.247548 0.180994,-0.401411 -0.256408,0.0238 -0.384612,-0.08748 -0.384612,-0.333832 0,-0.04273 0.0037,-0.08707 0.01131,-0.133025 -0.02514,0.0024 -0.044,0.0078 -0.05657,0.01656 -0.04273,0.04921 -0.08422,0.14482 -0.124434,0.286812 -0.03771,0.139246 -0.05656,0.276741 -0.05656,0.412487 z m 1.08219,0.171048 0.03771,-0.833056 c 0,-0.05279 -0.0076,-0.09733 -0.02263,-0.133646 -0.01508,-0.03882 -0.05153,-0.08947 -0.109351,-0.15199 l 0.01131,-0.06137 c 0.191049,-0.0655 0.349419,-0.104076 0.47511,-0.115743 0.12569,-0.01166 0.214929,0.01026 0.267719,0.06565 0.0553,0.05521 0.08295,0.136847 0.08295,0.244938 0,0.105583 -0.01885,0.263187 -0.05656,0.472819 -0.03771,0.209633 -0.05657,0.350899 -0.05657,0.423799 0,0.07039 0.02011,0.103712 0.06033,0.09998 0.0553,-0.0051 0.124433,-0.04423 0.207389,-0.117284 0.0025,-0.04296 0.01381,-0.167191 0.03394,-0.37268 0.02011,-0.205484 0.03016,-0.357246 0.03016,-0.455284 0,-0.100549 -0.0076,-0.187831 -0.02263,-0.26185 0.05782,-0.03553 0.15837,-0.07251 0.301657,-0.110952 0.143287,-0.03844 0.26395,-0.06221 0.361988,-0.0713 0.02263,0.04314 0.03394,0.113742 0.03394,0.21178 0,0.09552 -0.02137,0.265933 -0.0641,0.511225 -0.04273,0.242778 -0.0641,0.401874 -0.0641,0.477289 0,0.0729 0.02011,0.107484 0.06033,0.103754 0.06034,-0.0056 0.138262,-0.07191 0.233784,-0.198922 0.09552,-0.129528 0.15837,-0.244712 0.188535,-0.34555 l -0.275261,-0.245944 c 0.01005,-0.10399 0.03267,-0.202879 0.06787,-0.296644 0.0352,-0.09628 0.06787,-0.165925 0.09804,-0.208947 l 0.04148,-0.06418 c 0.304171,-0.02823 0.456256,0.08083 0.456256,0.327183 0,0.118149 -0.03267,0.258184 -0.09804,0.420107 -0.06284,0.161688 -0.143283,0.316212 -0.241325,0.463571 -0.09804,0.144845 -0.214931,0.271329 -0.350676,0.379452 -0.135745,0.108125 -0.26772,0.168136 -0.395924,0.180035 -0.17848,0.01657 -0.300401,-0.04878 -0.36576,-0.196066 -0.183508,0.167861 -0.372043,0.260775 -0.565606,0.278739 -0.115635,0.01073 -0.204875,-0.01492 -0.26772,-0.07696 -0.06284,-0.06204 -0.09426,-0.176017 -0.09426,-0.341928 z"
           style="font-weight:bold;font-size:3.52777px;font-family:'Oleo Script Swash Caps';-inkscape-font-specification:'Oleo Script Swash Caps Bold';letter-spacing:0px;word-spacing:0px;fill:#483737;stroke-width:8.55092"
           id="path1" />
      </g>
      <g
         id="g5"
         inkscape:label="tagline-group"
         transform="matrix(1,-0.01164426,0,1,1.9986419,1.414818)">
        <path
           style="font-size:1.76389px;font-family:'League Gothic';-inkscape-font-specification:'League Gothic';letter-spacing:0px;word-spacing:0px;fill:#00b0ff;fill-opacity:1;stroke:#483737;stroke-width:0.264583;stroke-dasharray:none;stroke-opacity:1"
           d="m 63.796973,86.091922 q -0.03477,0.0024 -0.05553,-0.03074 -0.02076,-0.03317 -0.01135,-0.10504 0.0091,-0.0694 0.04444,-0.113813 0.03585,-0.04445 0.100016,-0.07965 0.02016,-0.01112 0.03411,-0.01994 0.01395,-0.0088 0.01783,-0.01587 l 0.0077,-0.05906 q 0.0027,-0.02018 -3.93e-4,-0.03411 -0.0025,-0.01445 -0.02091,-0.01317 -0.01689,0.0012 -0.02491,0.01734 -0.008,0.01568 -0.01104,0.03882 l -0.0034,0.0256 -0.100342,0.007 0.0029,-0.02263 q 0.0058,-0.0443 0.02737,-0.0775 0.02214,-0.03373 0.05469,-0.05308 0.03312,-0.01986 0.07186,-0.02257 0.03725,-0.0026 0.06232,0.01272 0.02513,0.01483 0.0361,0.0438 0.01154,0.02847 0.0065,0.06685 l -0.04203,0.320921 q -0.0047,0.03592 -0.0053,0.05597 -5.42e-4,0.01954 5e-6,0.03707 l -0.09835,0.0069 q -0.0053,-0.0074 -0.005,-0.02257 10e-4,-0.01519 0.0017,-0.0201 l -0.007,4.84e-4 q -0.01539,0.02351 -0.03662,0.03913 -0.02074,0.0156 -0.04559,0.01733 z m 0.05349,-0.100303 q 0.01739,-0.0012 0.03085,-0.01387 0.01397,-0.01269 0.01577,-0.02647 l 0.01676,-0.127975 q -0.03826,0.01779 -0.05921,0.04998 -0.02039,0.03167 -0.02542,0.07006 -0.0022,0.01674 0.002,0.03301 0.0042,0.01629 0.01917,0.01524 z m 0.469087,0.06381 q -0.03526,0.0025 -0.06005,-0.0075 -0.02478,-0.01 -0.03933,-0.03041 -0.01449,-0.02094 -0.01949,-0.05034 -0.0045,-0.02944 3.45e-4,-0.06635 l 0.09339,-0.0065 q -0.0043,0.03298 0.0028,0.05687 0.0078,0.02336 0.0331,0.02159 0.02185,-0.0016 0.0307,-0.02018 0.0088,-0.01865 0.01187,-0.04229 0.0036,-0.02757 -0.01451,-0.05459 -0.01755,-0.02755 -0.03794,-0.04857 -0.03509,-0.03657 -0.05688,-0.07309 -0.02129,-0.03656 -0.01453,-0.08824 0.008,-0.06103 0.04518,-0.100693 0.03719,-0.03966 0.0968,-0.04383 0.03576,-0.0025 0.05887,0.0052 0.02361,0.0076 0.03606,0.02528 0.01245,0.01765 0.01537,0.04428 0.0034,0.02659 -0.0013,0.06202 l -0.09335,0.0065 q 0.0034,-0.0256 3.41e-4,-0.04391 -0.003,-0.01832 -0.02487,-0.01679 -0.01788,0.0013 -0.02734,0.01703 -0.0094,0.01529 -0.01246,0.03842 -0.0036,0.02707 0.0066,0.04733 0.0107,0.01974 0.03756,0.04761 0.03383,0.0347 0.0601,0.07482 0.02675,0.04008 0.02024,0.08978 -0.0042,0.03248 -0.01677,0.06018 -0.01197,0.02766 -0.03147,0.04853 -0.01897,0.02084 -0.04423,0.03333 -0.02477,0.01246 -0.05507,0.01458 z m 0.313949,-0.02192 q -0.04718,0.0033 -0.06932,-0.01564 -0.02212,-0.01894 -0.02653,-0.05667 -0.0039,-0.03777 0.003,-0.09092 l 0.03739,-0.285482 -0.05067,0.0036 0.01173,-0.08958 0.05067,-0.0036 0.01741,-0.132898 0.100343,-0.007 -0.01741,0.132896 0.06904,-0.0049 -0.01173,0.08957 -0.06904,0.0049 -0.03926,0.299757 q -0.0041,0.03149 0.0033,0.04609 0.0075,0.0141 0.02886,0.01262 0.0095,-6.62e-4 0.01658,-0.0026 0.0077,-0.002 0.01237,-0.0042 l -0.01192,0.09106 q -0.01041,0.0047 -0.02269,0.0079 -0.01182,0.0038 -0.03217,0.0051 z m 0.08498,-0.01375 0.07052,-0.538477 0.100342,-0.007 -0.0079,0.06005 q 0.0055,-0.0199 0.02295,-0.03623 0.0174,-0.01633 0.04042,-0.02672 0.02351,-0.01045 0.04587,-0.01201 l -0.01444,0.110255 q -0.0061,-0.002 -0.01354,-0.0019 -0.0068,-5.25e-4 -0.01376,-3.9e-5 -0.03279,0.0023 -0.05497,0.0214 -0.02219,0.0191 -0.02619,0.04961 l -0.04899,0.374081 z m 0.354643,-0.01695 q -0.0601,0.0042 -0.08953,-0.03423 -0.02885,-0.03895 -0.02105,-0.09851 l 0.03545,-0.270716 q 0.0083,-0.063 0.04767,-0.104771 0.03942,-0.04176 0.101032,-0.04606 0.04024,-0.0028 0.06667,0.01338 0.02692,0.01616 0.0382,0.0466 0.01134,0.02993 0.0061,0.06981 l -0.0205,0.156522 -0.165915,0.01158 -0.01534,0.117147 q -0.0027,0.02018 0.004,0.03678 0.0072,0.01608 0.02563,0.01479 0.01938,-0.0014 0.02938,-0.01765 0.01048,-0.01633 0.01345,-0.03899 l 0.0077,-0.05906 0.09339,-0.0065 -0.0082,0.06202 q -0.0082,0.06251 -0.04748,0.103302 -0.03874,0.04025 -0.100839,0.04459 z m 0.0083,-0.334175 0.07252,-0.005 0.0099,-0.0758 q 0.0029,-0.02215 -0.0029,-0.03784 -0.0053,-0.01621 -0.02563,-0.01479 -0.01886,0.0013 -0.03008,0.01918 -0.01117,0.01736 -0.01394,0.03852 z m 0.292705,0.313158 q -0.03526,0.0025 -0.06005,-0.0075 -0.02478,-0.01 -0.03933,-0.03041 -0.01449,-0.02094 -0.0195,-0.05033 -0.0045,-0.02944 3.45e-4,-0.06635 l 0.09339,-0.0065 q -0.0043,0.03298 0.0028,0.05687 0.0078,0.02336 0.0331,0.02159 0.02186,-0.0016 0.03069,-0.02018 0.0088,-0.01865 0.01187,-0.04229 0.0036,-0.02757 -0.01451,-0.05458 -0.01756,-0.02755 -0.03793,-0.04857 -0.03508,-0.03656 -0.05688,-0.07309 -0.02129,-0.03656 -0.01453,-0.08824 0.008,-0.06103 0.04519,-0.100693 0.03719,-0.03966 0.0968,-0.04383 0.03576,-0.0025 0.05887,0.0052 0.02361,0.0076 0.03606,0.02527 0.01245,0.01766 0.01537,0.04428 0.0034,0.02659 -0.0013,0.06202 l -0.0934,0.0065 q 0.0034,-0.0256 3.4e-4,-0.04391 -0.003,-0.01832 -0.02487,-0.01679 -0.01788,0.0013 -0.02734,0.01703 -0.0094,0.01529 -0.01246,0.03842 -0.0036,0.02707 0.0066,0.04733 0.0107,0.01973 0.03756,0.04761 0.03385,0.0347 0.0601,0.07482 0.02675,0.04008 0.02024,0.08978 -0.0042,0.03248 -0.01678,0.06018 -0.01197,0.02766 -0.03146,0.04853 -0.01898,0.02084 -0.04423,0.03333 -0.02477,0.01246 -0.05506,0.01457 z m 0.298052,-0.02081 q -0.03526,0.0025 -0.06005,-0.0075 -0.02477,-0.01 -0.03933,-0.03041 -0.01448,-0.02094 -0.01949,-0.05034 -0.0045,-0.02944 3.44e-4,-0.06635 l 0.09339,-0.0065 q -0.0043,0.03298 0.0028,0.05687 0.0078,0.02336 0.0331,0.02159 0.02185,-0.0016 0.03069,-0.02018 0.0088,-0.01865 0.01187,-0.04229 0.0036,-0.02757 -0.01451,-0.05459 -0.01756,-0.02755 -0.03794,-0.04857 -0.03508,-0.03656 -0.05688,-0.07309 -0.02129,-0.03656 -0.01453,-0.08824 0.008,-0.06103 0.04519,-0.100693 0.03719,-0.03966 0.0968,-0.04383 0.03576,-0.0025 0.05887,0.0052 0.02361,0.0076 0.03606,0.02528 0.01245,0.01766 0.01537,0.04428 0.0034,0.02659 -0.0013,0.06202 l -0.09339,0.0065 q 0.0034,-0.0256 3.41e-4,-0.04391 -0.003,-0.01831 -0.02487,-0.01679 -0.01788,0.0013 -0.02734,0.01703 -0.0094,0.01529 -0.01246,0.03842 -0.0036,0.02707 0.0066,0.04733 0.0107,0.01974 0.03756,0.04761 0.03385,0.0347 0.0601,0.07482 0.02675,0.04008 0.02024,0.08978 -0.0042,0.03248 -0.01677,0.06018 -0.01197,0.02766 -0.03146,0.04853 -0.01897,0.02084 -0.04423,0.03333 -0.02477,0.01246 -0.05507,0.01458 z m 0.208487,-0.238903 0.01225,-0.09352 0.144059,-0.01006 -0.01224,0.09352 z m 0.405999,0.196 q -0.03477,0.0024 -0.05552,-0.03074 -0.02076,-0.03317 -0.01135,-0.10504 0.0091,-0.0694 0.04444,-0.113812 0.03585,-0.04445 0.100008,-0.07965 0.02016,-0.01111 0.03411,-0.01994 0.01395,-0.0088 0.01783,-0.01587 l 0.0077,-0.05906 q 0.0027,-0.02018 -3.92e-4,-0.03412 -0.0025,-0.01445 -0.02091,-0.01317 -0.01689,0.0012 -0.02491,0.01734 -0.008,0.01568 -0.01104,0.03882 l -0.0034,0.0256 -0.100342,0.007 0.0029,-0.02263 q 0.0058,-0.0443 0.02738,-0.0775 0.02214,-0.03373 0.05469,-0.05308 0.03312,-0.01987 0.07186,-0.02257 0.03725,-0.0026 0.06232,0.01272 0.02513,0.01483 0.03611,0.0438 0.01153,0.02847 0.0065,0.06685 l -0.04203,0.320922 q -0.0047,0.03592 -0.0053,0.05597 -5.43e-4,0.01955 6e-6,0.03707 l -0.09836,0.0069 q -0.0053,-0.0074 -0.005,-0.02257 0.001,-0.01519 0.0017,-0.0201 l -0.007,4.86e-4 q -0.01539,0.0235 -0.03662,0.03913 -0.02074,0.0156 -0.04559,0.01733 z m 0.05349,-0.100302 q 0.01738,-0.0012 0.03085,-0.01387 0.01397,-0.01269 0.01577,-0.02646 l 0.01676,-0.127975 q -0.03825,0.01779 -0.05921,0.04998 -0.02038,0.03167 -0.0254,0.07006 -0.0022,0.01674 0.002,0.03302 0.0042,0.01629 0.01917,0.01524 z m 0.18697,0.0757 0.07052,-0.53848 0.100341,-0.007 -0.006,0.04528 q 0.02014,-0.01847 0.04481,-0.03775 0.02473,-0.01976 0.04362,-0.02108 0.02483,-0.0017 0.03966,0.01283 0.01483,0.01456 0.02012,0.0381 0.0052,0.02353 0.0019,0.04913 l -0.05776,0.441022 -0.100342,0.007 0.05518,-0.421334 q 0.002,-0.01575 -0.0026,-0.02176 -0.0046,-0.006 -0.01754,-0.005 -0.01093,7.63e-4 -0.0199,0.0092 -0.0084,0.008 -0.01622,0.01869 l -0.05557,0.424286 z m 0.378487,-0.01861 q -0.02483,0.0017 -0.04022,-0.01232 -0.01539,-0.01405 -0.02117,-0.03754 -0.0058,-0.02399 -0.0023,-0.05007 l 0.04499,-0.343566 q 0.0034,-0.02608 0.01499,-0.05079 0.01213,-0.02474 0.03147,-0.04121 0.01945,-0.01696 0.04478,-0.01873 0.01886,-0.0013 0.03806,0.01003 0.01918,0.01135 0.03574,0.02773 l 0.02888,-0.22051 0.100342,-0.007 -0.09476,0.72355 -0.100341,0.007 0.0047,-0.03544 q -0.02213,0.01862 -0.04324,0.03325 -0.02105,0.01415 -0.04191,0.01561 z m 0.05993,-0.09685 q 0.01143,-7.98e-4 0.02259,-0.01088 0.01164,-0.01011 0.01344,-0.02386 l 0.03958,-0.302217 q 0.0016,-0.01182 -0.0075,-0.02142 -0.0085,-0.0096 -0.02001,-0.0088 -0.01093,7.63e-4 -0.01911,0.01063 -0.0081,0.0094 -0.01,0.02362 l -0.03958,0.302217 q -0.0018,0.01377 0.0039,0.02265 0.0057,0.0089 0.01666,0.0082 z m 0.518285,0.05647 q -0.02086,0.0015 -0.03856,-0.01 -0.01763,-0.01193 -0.03524,-0.02777 l -0.0047,0.03544 -0.100342,0.007 0.09476,-0.723551 0.100341,-0.007 -0.02888,0.22051 q 0.02119,-0.01904 0.04373,-0.03329 0.02255,-0.01425 0.04141,-0.01556 0.02584,-0.0018 0.04066,0.01277 0.01539,0.01405 0.02067,0.03756 0.0058,0.0235 0.0024,0.04958 l -0.04499,0.343563 q -0.0034,0.02608 -0.01562,0.05131 -0.01213,0.02474 -0.03148,0.0412 -0.01938,0.01647 -0.04422,0.0182 z m -0.03545,-0.09019 q 0.01142,-7.97e-4 0.01911,-0.01063 0.0082,-0.0099 0.01,-0.02362 l 0.03958,-0.302217 q 0.0018,-0.01428 -0.0039,-0.02265 -0.0051,-0.0089 -0.01664,-0.0082 -0.01093,7.63e-4 -0.02272,0.01181 -0.01177,0.01104 -0.01332,0.02287 l -0.03958,0.302217 q -0.0018,0.01378 0.0073,0.02241 0.0092,0.0086 0.02013,0.0079 z m 0.16364,0.07343 0.09476,-0.723551 0.100342,-0.007 -0.09476,0.723551 z m 0.277779,-0.01258 q -0.06011,0.0042 -0.08916,-0.03328 -0.02898,-0.03797 -0.02092,-0.09949 l 0.03533,-0.269699 q 0.0081,-0.06152 0.04754,-0.103791 0.03955,-0.04275 0.09967,-0.04694 0.0596,-0.0041 0.0886,0.0338 0.02955,0.03745 0.0215,0.09897 l -0.03533,0.269732 q -0.0081,0.06152 -0.04812,0.104316 -0.03949,0.04226 -0.09911,0.04642 z m 0.01134,-0.08663 q 0.01938,-0.0014 0.02882,-0.01713 0.0096,-0.01627 0.01272,-0.0404 l 0.03533,-0.269732 q 0.0032,-0.02461 -0.0023,-0.03935 -0.0055,-0.01474 -0.02483,-0.01339 -0.01938,0.0014 -0.02882,0.01713 -0.0095,0.01578 -0.01272,0.0404 l -0.03533,0.269732 q -0.0032,0.02461 0.0023,0.03935 0.0055,0.01474 0.02483,0.01339 z m 0.239881,0.07006 q -0.03477,0.0024 -0.05552,-0.03074 -0.02076,-0.03318 -0.01135,-0.105039 0.0091,-0.06941 0.04444,-0.113814 0.03585,-0.04445 0.100016,-0.07965 0.02016,-0.01111 0.03411,-0.01994 0.01396,-0.0088 0.01783,-0.01587 l 0.0077,-0.05906 q 0.0027,-0.02018 -3.91e-4,-0.03412 -0.0025,-0.01445 -0.02091,-0.01317 -0.01689,0.0012 -0.02492,0.01734 -0.008,0.01568 -0.01104,0.03882 l -0.0034,0.0256 -0.100341,0.007 0.0029,-0.02264 q 0.0058,-0.04429 0.02737,-0.0775 0.02214,-0.03373 0.0547,-0.05308 0.03312,-0.01986 0.07186,-0.02257 0.03725,-0.0026 0.06233,0.01272 0.02513,0.01483 0.0361,0.0438 0.01154,0.02847 0.0065,0.06685 l -0.04203,0.320921 q -0.0047,0.03593 -0.0053,0.05597 -5.43e-4,0.01955 6e-6,0.03707 l -0.09836,0.0069 q -0.0053,-0.0074 -0.005,-0.02258 10e-4,-0.01519 0.0017,-0.0201 l -0.007,4.85e-4 q -0.01538,0.0235 -0.03662,0.03913 -0.02074,0.0156 -0.04558,0.01733 z m 0.05349,-0.100303 q 0.01738,-0.0012 0.03085,-0.01387 0.01397,-0.01269 0.01577,-0.02647 l 0.01676,-0.127973 q -0.03826,0.01779 -0.05921,0.04998 -0.02039,0.03166 -0.02542,0.07006 -0.0022,0.01674 0.002,0.03302 0.0042,0.01629 0.01917,0.01524 z m 0.331984,0.07339 q -0.04718,0.0033 -0.06932,-0.01564 -0.02214,-0.01894 -0.02653,-0.05667 -0.0039,-0.03777 0.003,-0.09092 l 0.03739,-0.285483 -0.05067,0.0036 0.01173,-0.08957 0.05067,-0.0036 0.01741,-0.132897 0.100342,-0.007 -0.01741,0.132897 0.06907,-0.0049 -0.01173,0.08957 -0.06906,0.0049 -0.03926,0.299757 q -0.0041,0.03149 0.0033,0.04609 0.0075,0.01411 0.02886,0.01262 0.0095,-6.61e-4 0.01658,-0.0026 0.0077,-0.002 0.01239,-0.0043 l -0.01192,0.09106 q -0.01041,0.0047 -0.0227,0.0079 -0.01181,0.0038 -0.03216,0.0051 z m 0.124532,-0.233041 0.01225,-0.09352 0.144059,-0.01006 -0.01225,0.09352 z m 0.206838,0.202102 0.05879,-0.448897 -0.05067,0.0036 0.01173,-0.08957 0.05067,-0.0036 0.0039,-0.02954 q 0.01,-0.07629 0.05117,-0.120135 0.04174,-0.04438 0.09986,-0.04843 0.01292,-9.02e-4 0.02351,8.11e-4 0.0106,0.0017 0.01706,0.005 l -0.01134,0.08663 q -0.0089,-0.0067 -0.02884,-0.0053 -0.01441,0.001 -0.03025,0.01675 -0.01534,0.0157 -0.01915,0.04474 l -0.0055,0.04233 0.0606,-0.0042 -0.01173,0.08957 -0.0606,0.0042 -0.05879,0.448898 z m 0.201682,-0.01408 0.07052,-0.538479 0.100343,-0.007 -0.0079,0.06005 q 0.0055,-0.01989 0.02294,-0.03623 0.0174,-0.01633 0.04042,-0.02672 0.02351,-0.01045 0.04586,-0.01201 l -0.01444,0.110256 q -0.0061,-0.002 -0.01353,-0.0019 -0.0068,-5.24e-4 -0.01377,-3.8e-5 -0.03278,0.0023 -0.05497,0.02139 -0.02219,0.0191 -0.02619,0.04961 l -0.04899,0.374082 z m 0.354642,-0.01695 q -0.0601,0.0042 -0.08953,-0.03424 -0.02885,-0.03895 -0.02105,-0.09851 l 0.03545,-0.270717 q 0.0083,-0.063 0.04767,-0.10477 0.03942,-0.04176 0.101033,-0.04606 0.04025,-0.0028 0.06667,0.01338 0.02692,0.01616 0.0382,0.0466 0.01134,0.02993 0.0061,0.06981 l -0.0205,0.156523 -0.165915,0.01158 -0.01534,0.117146 q -0.0027,0.02018 0.004,0.03678 0.0072,0.01608 0.02563,0.01479 0.01938,-0.0014 0.02938,-0.01765 0.01048,-0.01633 0.01345,-0.03897 l 0.0077,-0.05906 0.09339,-0.0065 -0.0082,0.06201 q -0.0082,0.06251 -0.04748,0.103302 -0.03874,0.04026 -0.100842,0.0446 z m 0.0083,-0.334177 0.07252,-0.005 0.0099,-0.0758 q 0.0029,-0.02215 -0.0029,-0.03784 -0.0053,-0.01621 -0.02563,-0.01479 -0.01887,0.0013 -0.03008,0.01918 -0.01117,0.01736 -0.01394,0.03853 z m 0.290718,0.313297 q -0.06011,0.0042 -0.08953,-0.03423 -0.02887,-0.03895 -0.02107,-0.09851 l 0.03546,-0.270694 q 0.0083,-0.063 0.04769,-0.104771 0.03942,-0.04176 0.101033,-0.04607 0.04025,-0.0028 0.06667,0.01338 0.02692,0.01616 0.0382,0.0466 0.01134,0.02993 0.0061,0.06981 l -0.0205,0.156524 -0.165905,0.01158 -0.01534,0.117147 q -0.0027,0.02017 0.004,0.03678 0.0072,0.01608 0.02563,0.01479 0.01938,-0.0014 0.02938,-0.01765 0.01048,-0.01633 0.01345,-0.03897 l 0.0077,-0.05906 0.09339,-0.0065 -0.0082,0.06201 q -0.0082,0.06251 -0.0475,0.103303 -0.03874,0.04026 -0.100841,0.0446 z m 0.0083,-0.334174 0.07252,-0.005 0.0099,-0.0758 q 0.0029,-0.02215 -0.0029,-0.03784 -0.0053,-0.01621 -0.02563,-0.01479 -0.01886,0.0013 -0.03008,0.01918 -0.01117,0.01736 -0.01394,0.03853 z m 0.455639,0.301781 q -0.0442,0.0031 -0.06932,-0.01564 -0.02511,-0.01874 -0.03389,-0.05324 -0.0083,-0.03454 -0.0025,-0.07884 l 0.05582,-0.426256 q 0.0058,-0.0438 0.02777,-0.08046 0.02202,-0.03665 0.05702,-0.05958 0.03507,-0.02342 0.07878,-0.02648 0.03328,-0.0023 0.05799,0.0082 0.02528,0.01 0.04082,0.03031 0.01604,0.02034 0.02173,0.04823 0.0062,0.02737 0.0019,0.05985 l -0.01457,0.11124 -0.107303,0.0075 0.01457,-0.111241 q 0.0028,-0.02165 -0.003,-0.03685 -0.0059,-0.01519 -0.02576,-0.0138 -0.01938,0.0014 -0.03002,0.01868 -0.01009,0.0168 -0.01273,0.03699 l -0.05699,0.435114 q -0.0028,0.02117 0.0035,0.03682 0.0063,0.01516 0.02526,0.01384 0.01987,-0.0014 0.02989,-0.01769 0.01009,-0.01681 0.01286,-0.03797 l 0.01586,-0.121082 -0.04273,0.003 0.01302,-0.09943 0.150019,-0.01047 -0.04719,0.3603 -0.06358,0.0044 -0.0078,-0.03847 q -0.0168,0.02312 -0.04034,0.03744 -0.02296,0.0138 -0.0493,0.01564 z m 0.230535,-0.02391 0.07052,-0.538479 0.100342,-0.007 -0.07052,0.538479 z m 0.08174,-0.624123 0.01302,-0.09943 0.10034,-0.007 -0.01302,0.09943 z m 0.214283,0.611258 q -0.04719,0.0033 -0.06932,-0.01564 -0.02213,-0.01894 -0.02653,-0.05667 -0.0039,-0.03777 0.003,-0.09092 l 0.03739,-0.285482 -0.05067,0.0036 0.01173,-0.08957 0.05067,-0.0036 0.01741,-0.132897 0.100343,-0.007 -0.01741,0.132896 0.06905,-0.0049 -0.01173,0.08957 -0.06905,0.0049 -0.03926,0.299757 q -0.0041,0.03149 0.0033,0.04609 0.0075,0.01411 0.02886,0.01262 0.0095,-6.61e-4 0.01658,-0.0026 0.0077,-0.002 0.01239,-0.0043 l -0.01192,0.09106 q -0.01041,0.0047 -0.0227,0.0079 -0.01181,0.0038 -0.03216,0.0051 z m 0.301073,-0.02883 -0.01,-0.53286 0.09636,-0.0067 -0.01005,0.279672 -0.0032,0.05486 0.0061,-4.2e-4 0.01212,-0.05548 0.07859,-0.284459 0.0596,-0.0041 0.0049,0.278633 -0.0023,0.0548 0.0061,-4.2e-4 0.0112,-0.05541 0.0637,-0.283418 0.09636,-0.0067 -0.151006,0.544098 -0.08346,0.0059 -0.0051,-0.254229 0.0017,-0.04986 -0.0039,2.78e-4 -0.01148,0.05054 -0.0724,0.259641 z m 0.493866,-0.02767 q -0.06011,0.0042 -0.08916,-0.03327 -0.02898,-0.03797 -0.02092,-0.09949 l 0.03533,-0.269732 q 0.0081,-0.06152 0.04754,-0.103792 0.03955,-0.04275 0.09967,-0.04695 0.0596,-0.0041 0.0886,0.0338 0.02955,0.03745 0.0215,0.09897 l -0.03533,0.269732 q -0.0081,0.06152 -0.04812,0.104317 -0.03948,0.04226 -0.09911,0.04642 z m 0.01134,-0.08663 q 0.01938,-0.0014 0.02882,-0.01713 0.0096,-0.01627 0.01272,-0.04039 l 0.03533,-0.269712 q 0.0032,-0.0246 -0.0023,-0.03934 -0.0055,-0.01474 -0.02483,-0.01339 -0.01938,0.0014 -0.02882,0.01713 -0.0095,0.01578 -0.01272,0.04039 l -0.03533,0.269732 q -0.0032,0.02461 0.0023,0.03934 0.0055,0.01474 0.02483,0.01339 z m 0.162921,0.06763 0.07052,-0.538485 0.100342,-0.007 -0.0079,0.06005 q 0.0055,-0.01989 0.02295,-0.03623 0.0174,-0.01633 0.04042,-0.02672 0.02351,-0.01045 0.04587,-0.01201 l -0.01443,0.110256 q -0.0061,-0.002 -0.01353,-0.0019 -0.0068,-5.24e-4 -0.01378,-3.8e-5 -0.03279,0.0023 -0.05497,0.02139 -0.02219,0.0191 -0.02619,0.04962 l -0.04899,0.374081 z m 0.235461,-0.01643 0.09476,-0.72355 0.100342,-0.007 -0.04267,0.325845 -0.0023,0.01772 0.0049,-3.42e-4 0.0083,-0.01814 0.06711,-0.144172 0.09538,-0.0067 -0.10044,0.180638 0.04382,0.35687 -0.101333,0.0071 -0.02117,-0.21409 1.1e-5,-0.0078 -0.001,7e-5 -0.02105,0.04048 -0.02437,0.186056 z m 0.332326,-0.0232 0.05879,-0.448895 -0.05067,0.0036 0.01173,-0.08958 0.05067,-0.0036 0.0019,-0.01476 q 0.0071,-0.05365 0.02213,-0.09421 0.01511,-0.04055 0.04432,-0.06405 0.02972,-0.02402 0.0799,-0.02752 0.02186,-0.0016 0.0414,-4.37e-4 0.0201,5.96e-4 0.02924,0.0023 l 0.07948,-0.0056 -0.09476,0.723551 -0.100342,0.007 0.08367,-0.63889 q -0.0062,-5.63e-4 -0.01372,-4.96e-4 -0.0074,3e-5 -0.01881,8.24e-4 -0.02235,0.0016 -0.03436,0.02191 -0.01156,0.02031 -0.01478,0.04492 l -0.005,0.0384 0.05067,-0.0036 -0.01173,0.08958 -0.05067,0.0036 -0.0588,0.448896 z m 0.451643,-0.02472 q -0.06012,0.0042 -0.08916,-0.03328 -0.02898,-0.03797 -0.02092,-0.09949 l 0.03532,-0.269674 q 0.0081,-0.06152 0.04754,-0.103791 0.03955,-0.04275 0.09967,-0.04695 0.0596,-0.0041 0.0886,0.0338 0.02955,0.03744 0.0215,0.09897 l -0.03533,0.269732 q -0.0081,0.06152 -0.04812,0.104317 -0.03949,0.04227 -0.09911,0.04643 z m 0.01134,-0.08663 q 0.01938,-0.0014 0.02882,-0.01713 0.0096,-0.01627 0.01272,-0.0404 l 0.03533,-0.269732 q 0.0032,-0.02461 -0.0023,-0.03934 -0.0055,-0.01474 -0.02483,-0.01339 -0.01938,0.0014 -0.02882,0.01713 -0.0095,0.01578 -0.01272,0.04039 l -0.03533,0.269732 q -0.0032,0.02462 0.0023,0.03935 0.0055,0.01474 0.02482,0.01339 z m 0.226009,0.06323 -0.0099,-0.53286 0.09636,-0.0067 -0.01005,0.279671 -0.0032,0.05484 0.0061,-4.2e-4 0.01212,-0.05546 0.07859,-0.284457 0.0596,-0.0041 0.0049,0.278632 -0.0023,0.05478 0.0061,-4.2e-4 0.0112,-0.05539 0.06369,-0.283417 0.09636,-0.0067 -0.151006,0.544096 -0.08346,0.0059 -0.005,-0.254229 0.0016,-0.04986 -0.0039,2.77e-4 -0.01148,0.05054 -0.0724,0.25964 z m 0.554875,-0.03874 0.05879,-0.448896 -0.05067,0.0036 0.01173,-0.08958 0.05067,-0.0036 0.0039,-0.02954 q 0.01,-0.07629 0.05117,-0.120135 0.04175,-0.04437 0.09986,-0.04843 0.01291,-9.01e-4 0.02351,8.11e-4 0.0106,0.0017 0.01706,0.005 l -0.01134,0.08663 q -0.0089,-0.0067 -0.02884,-0.0053 -0.01441,0.001 -0.03025,0.01674 -0.01534,0.0157 -0.01915,0.04474 l -0.0055,0.04233 0.0606,-0.0042 -0.01173,0.08958 -0.0606,0.0042 -0.05879,0.448896 z m 0.32447,-0.01584 q -0.0601,0.0042 -0.08916,-0.03329 -0.02898,-0.03797 -0.02092,-0.09949 l 0.03533,-0.269731 q 0.0081,-0.06152 0.04754,-0.103791 0.03955,-0.04275 0.09967,-0.04695 0.0596,-0.0041 0.0886,0.0338 0.02955,0.03744 0.0215,0.09897 l -0.03517,0.269763 q -0.0081,0.06152 -0.04812,0.104317 -0.03949,0.04227 -0.09911,0.04643 z m 0.01134,-0.08663 q 0.01938,-0.0014 0.02882,-0.01713 0.0096,-0.01627 0.01272,-0.04039 l 0.03533,-0.269732 q 0.0032,-0.02461 -0.0023,-0.03935 -0.0055,-0.01474 -0.02483,-0.01339 -0.01938,0.0014 -0.02882,0.01713 -0.0095,0.01578 -0.01272,0.0404 l -0.03515,0.269792 q -0.0032,0.02461 0.0023,0.03934 0.0055,0.01474 0.02483,0.01339 z m 0.162924,0.06763 0.07052,-0.538479 0.100341,-0.007 -0.0079,0.06005 q 0.0055,-0.01989 0.02295,-0.03623 0.0174,-0.01633 0.04042,-0.02672 0.02351,-0.01046 0.04588,-0.01201 l -0.01444,0.110255 q -0.0061,-0.002 -0.01354,-0.0019 -0.0068,-5.24e-4 -0.01377,-3.8e-5 -0.03279,0.0023 -0.05498,0.0214 -0.02219,0.0191 -0.02619,0.04961 l -0.04899,0.37408 z m 0.38846,-0.02712 0.07052,-0.53848 0.100343,-0.007 -0.006,0.04528 q 0.02725,-0.02384 0.0491,-0.0405 0.02242,-0.01717 0.04131,-0.01849 0.02682,-0.0018 0.04083,0.01519 0.014,0.01706 0.01886,0.04015 0.02419,-0.02316 0.04956,-0.04395 0.02586,-0.02083 0.0497,-0.02249 0.02484,-0.0017 0.03966,0.01283 0.01483,0.01456 0.02012,0.0381 0.0052,0.02353 0.0019,0.04913 l -0.05776,0.441022 -0.09438,0.0066 0.05518,-0.421333 q 0.002,-0.01575 -0.005,-0.02159 -0.0067,-0.0058 -0.01804,-0.005 -0.01142,7.97e-4 -0.02302,0.01042 -0.01151,0.0091 -0.01808,0.01785 l -0.05557,0.424286 -0.09438,0.0066 0.05518,-0.421332 q 0.002,-0.01575 -0.005,-0.02159 -0.0067,-0.0058 -0.01804,-0.005 -0.01143,7.98e-4 -0.02302,0.01042 -0.01151,0.0091 -0.01808,0.01785 l -0.05557,0.424285 z m 0.590735,-0.03443 q -0.06011,0.0042 -0.08916,-0.03327 -0.02898,-0.03797 -0.02092,-0.09949 l 0.03533,-0.269731 q 0.0081,-0.06152 0.04754,-0.103791 0.03955,-0.04275 0.09967,-0.04695 0.0596,-0.0041 0.0886,0.0338 0.02955,0.03744 0.0215,0.09897 l -0.03533,0.269732 q -0.0081,0.06152 -0.04812,0.104316 -0.03951,0.04226 -0.09911,0.04642 z m 0.01134,-0.08663 q 0.01938,-0.0014 0.02882,-0.01713 0.0096,-0.01627 0.01272,-0.04039 l 0.03533,-0.269731 q 0.0032,-0.02461 -0.0023,-0.03935 -0.0055,-0.01474 -0.02483,-0.01339 -0.01938,0.0014 -0.02883,0.01713 -0.0095,0.01578 -0.01272,0.0404 l -0.03533,0.269731 q -0.0032,0.02461 0.0023,0.03934 0.0055,0.01474 0.02483,0.01339 z m 0.234417,0.07044 q -0.02483,0.0017 -0.04022,-0.01231 -0.01539,-0.01405 -0.02118,-0.03754 -0.0058,-0.02398 -0.0023,-0.05007 l 0.04499,-0.343566 q 0.0034,-0.02608 0.01499,-0.05079 0.01213,-0.02474 0.03148,-0.0412 0.01944,-0.01696 0.04478,-0.01873 0.01886,-0.0013 0.03806,0.01003 0.01919,0.01134 0.03574,0.02773 l 0.02888,-0.220495 0.100341,-0.007 -0.09476,0.72355 -0.100342,0.007 0.0047,-0.03544 q -0.02213,0.01862 -0.04324,0.03325 -0.02105,0.01416 -0.04192,0.01561 z m 0.05993,-0.09685 q 0.01143,-7.98e-4 0.02259,-0.01088 0.01164,-0.01011 0.01344,-0.02386 l 0.03958,-0.302219 q 0.0016,-0.01182 -0.0075,-0.02142 -0.0085,-0.0096 -0.02001,-0.0088 -0.01093,7.63e-4 -0.01911,0.01063 -0.0081,0.0094 -0.01,0.02361 l -0.03958,0.302219 q -0.0018,0.01377 0.0039,0.02265 0.0057,0.0089 0.01665,0.0082 z m 0.309649,0.07105 q -0.06011,0.0042 -0.08953,-0.03424 -0.02885,-0.03895 -0.02105,-0.0985 l 0.03545,-0.270717 q 0.0083,-0.063 0.04767,-0.104771 0.03942,-0.04176 0.101034,-0.04606 0.04024,-0.0028 0.06665,0.01338 0.02692,0.01616 0.0382,0.0466 0.01133,0.02993 0.0061,0.06981 l -0.0205,0.156522 -0.165892,0.01158 -0.01534,0.117147 q -0.0027,0.02018 0.004,0.03678 0.0072,0.01608 0.02563,0.01479 0.01938,-0.0014 0.02938,-0.01765 0.01048,-0.01633 0.01345,-0.03898 l 0.0077,-0.05906 0.09339,-0.0065 -0.0082,0.06202 q -0.0082,0.06251 -0.04748,0.103291 -0.03874,0.04025 -0.100839,0.04459 z m 0.0083,-0.334175 0.07252,-0.005 0.0099,-0.0758 q 0.0029,-0.02215 -0.0029,-0.03784 -0.0053,-0.01621 -0.02563,-0.01479 -0.01887,0.0013 -0.03008,0.01918 -0.01117,0.01736 -0.01394,0.03852 z m 0.16557,0.31423 0.07052,-0.538479 0.100341,-0.007 -0.0079,0.06005 q 0.0055,-0.0199 0.02295,-0.03623 0.0174,-0.01633 0.04042,-0.02672 0.02351,-0.01045 0.04587,-0.01201 l -0.01444,0.110256 q -0.0061,-0.002 -0.01352,-0.0019 -0.0068,-5.25e-4 -0.01377,-3.9e-5 -0.03279,0.0023 -0.05498,0.0214 -0.02219,0.0191 -0.02619,0.04961 l -0.04901,0.374081 z m 0.23546,-0.01643 0.07052,-0.53848 0.100342,-0.007 -0.006,0.04529 q 0.02014,-0.01847 0.04481,-0.03776 0.02473,-0.01976 0.04362,-0.02108 0.02484,-0.0017 0.03966,0.01283 0.01483,0.01456 0.02012,0.03809 0.0052,0.02353 0.0019,0.04913 l -0.05776,0.441021 -0.100341,0.007 0.05518,-0.421333 q 0.002,-0.01575 -0.0026,-0.02176 -0.0046,-0.006 -0.01754,-0.005 -0.01093,7.63e-4 -0.0199,0.0092 -0.0084,0.008 -0.01623,0.01869 l -0.05557,0.424285 z m 0.523083,-0.03652 -0.01,-0.53286 0.09636,-0.0067 -0.01005,0.279672 -0.0032,0.05486 0.0061,-4.2e-4 0.01212,-0.05548 0.0786,-0.284458 0.0596,-0.0041 0.0049,0.278631 -0.0023,0.0548 0.0061,-4.2e-4 0.0112,-0.05541 0.06369,-0.283417 0.09636,-0.0067 -0.151005,0.544098 -0.08346,0.0059 -0.0051,-0.254229 0.0017,-0.04986 -0.0039,2.78e-4 -0.01148,0.05054 -0.0724,0.259641 z m 0.491249,-0.02648 q -0.06011,0.0042 -0.08953,-0.03423 -0.02887,-0.03895 -0.02106,-0.0985 l 0.03545,-0.270718 q 0.0083,-0.063 0.04769,-0.104773 0.03942,-0.04176 0.101033,-0.04606 0.04025,-0.0028 0.06666,0.01338 0.02693,0.01616 0.0382,0.0466 0.01134,0.02993 0.0061,0.06981 l -0.0205,0.156523 -0.165915,0.01158 -0.01534,0.117146 q -0.0027,0.02018 0.004,0.03679 0.0072,0.01608 0.02563,0.01479 0.01938,-0.0014 0.02938,-0.01765 0.01048,-0.01633 0.01345,-0.03898 l 0.0077,-0.05906 0.09339,-0.0065 -0.0082,0.06202 q -0.0082,0.06251 -0.0475,0.103292 -0.03874,0.04026 -0.100841,0.0446 z m 0.0083,-0.334176 0.07252,-0.005 0.0099,-0.0758 q 0.0029,-0.02215 -0.0029,-0.03784 -0.0053,-0.01621 -0.02563,-0.01479 -0.01886,0.0013 -0.03008,0.01917 -0.01117,0.01736 -0.01394,0.03853 z m 0.346355,0.309413 q -0.02086,0.0015 -0.03856,-0.01 -0.01763,-0.01194 -0.03524,-0.02777 l -0.0047,0.03544 -0.100342,0.007 0.09476,-0.72355 0.100341,-0.007 -0.02888,0.220512 q 0.02119,-0.01904 0.04373,-0.03328 0.02253,-0.01425 0.04141,-0.01557 0.02583,-0.0018 0.04066,0.01277 0.01539,0.01405 0.02067,0.03756 0.0058,0.0235 0.0024,0.04958 l -0.04499,0.343563 q -0.0034,0.02608 -0.01562,0.05132 -0.01213,0.02474 -0.03147,0.0412 -0.01939,0.01647 -0.04423,0.01821 z m -0.03545,-0.09019 q 0.01142,-7.97e-4 0.01911,-0.01063 0.0082,-0.0099 0.01,-0.02362 l 0.03958,-0.302217 q 0.0018,-0.01428 -0.0039,-0.02265 -0.0051,-0.0089 -0.01664,-0.0082 -0.01093,7.64e-4 -0.02272,0.01181 -0.01177,0.01104 -0.01332,0.02287 l -0.03958,0.302217 q -0.0018,0.01377 0.0073,0.02241 0.0092,0.0086 0.02013,0.0079 z m 0.383168,0.06591 q -0.02483,0.0017 -0.04022,-0.01231 -0.01539,-0.01405 -0.02118,-0.03754 -0.0058,-0.02398 -0.0023,-0.05006 l 0.04499,-0.343549 q 0.0034,-0.02608 0.01499,-0.05079 0.01213,-0.02474 0.03147,-0.0412 0.01945,-0.01696 0.04478,-0.01873 0.01886,-0.0013 0.03806,0.01003 0.01919,0.01134 0.03574,0.02773 l 0.02888,-0.22051 0.100342,-0.007 -0.09476,0.723551 -0.100342,0.007 0.0047,-0.03544 q -0.02213,0.01861 -0.04324,0.03325 -0.02105,0.01415 -0.04192,0.01561 z m 0.05993,-0.09685 q 0.01142,-7.97e-4 0.02259,-0.01088 0.01164,-0.01011 0.01345,-0.02386 l 0.03958,-0.302204 q 0.0016,-0.01182 -0.0075,-0.02142 -0.0085,-0.0096 -0.02001,-0.0088 -0.01093,7.63e-4 -0.01911,0.01063 -0.0081,0.0094 -0.01,0.02362 l -0.03958,0.302218 q -0.0018,0.01377 0.0039,0.02265 0.0057,0.0089 0.01664,0.0082 z m 0.309646,0.07105 q -0.06011,0.0042 -0.08953,-0.03423 -0.02885,-0.03895 -0.02105,-0.0985 l 0.03545,-0.270718 q 0.0083,-0.063 0.04767,-0.10477 0.03942,-0.04176 0.101034,-0.04606 0.04025,-0.0028 0.06667,0.01338 0.02692,0.01616 0.0382,0.0466 0.01134,0.02993 0.0061,0.06981 l -0.0205,0.156523 -0.165916,0.01158 -0.01534,0.117146 q -0.0027,0.02018 0.004,0.03679 0.0072,0.01608 0.02563,0.01479 0.01938,-0.0014 0.02938,-0.01765 0.01048,-0.01633 0.01345,-0.03898 l 0.0077,-0.05906 0.09339,-0.0065 -0.0082,0.06202 q -0.0082,0.06251 -0.04748,0.103291 -0.03874,0.04026 -0.100841,0.0446 z m 0.0083,-0.334175 0.07252,-0.005 0.0099,-0.0758 q 0.0029,-0.02215 -0.0029,-0.03784 -0.0053,-0.01622 -0.02563,-0.01479 -0.01886,0.0013 -0.03008,0.01917 -0.01117,0.01736 -0.01394,0.03853 z m 0.233629,0.30948 -0.01789,-0.532308 0.09735,-0.0068 -0.0071,0.309706 -0.0041,0.05394 0.008,-5.56e-4 0.01005,-0.05436 0.07464,-0.314421 0.09735,-0.0068 -0.158948,0.544653 z m 0.340236,-0.01594 q -0.0601,0.0042 -0.08953,-0.03423 -0.02885,-0.03895 -0.02105,-0.09852 l 0.03546,-0.270715 q 0.0083,-0.063 0.04767,-0.104771 0.03942,-0.04176 0.101034,-0.04606 0.04024,-0.0028 0.06667,0.01338 0.02692,0.01616 0.0382,0.0466 0.01134,0.02993 0.0061,0.06981 l -0.0205,0.156522 -0.165916,0.01158 -0.01534,0.117147 q -0.0027,0.02018 0.004,0.03678 0.0072,0.01608 0.02563,0.01479 0.01938,-0.0014 0.02938,-0.01765 0.01048,-0.01633 0.01345,-0.03899 l 0.0077,-0.05906 0.09339,-0.0065 -0.0082,0.06202 q -0.0082,0.06251 -0.04748,0.103291 -0.03874,0.04026 -0.100842,0.0446 z m 0.0083,-0.334177 0.07252,-0.005 0.0099,-0.0758 q 0.0029,-0.02215 -0.0029,-0.03784 -0.0053,-0.01621 -0.02563,-0.01479 -0.01886,0.0013 -0.03008,0.01917 -0.01117,0.01736 -0.01394,0.03852 z m 0.17054,0.313884 0.09476,-0.72355 0.100342,-0.007 -0.09476,0.72355 z m 0.277779,-0.01258 q -0.06011,0.0042 -0.08916,-0.03327 -0.02898,-0.03797 -0.02092,-0.09949 l 0.03533,-0.269732 q 0.0081,-0.06152 0.04754,-0.103792 0.03957,-0.04275 0.09967,-0.04695 0.0596,-0.0041 0.0886,0.0338 0.02955,0.03744 0.0215,0.09897 l -0.03533,0.269732 q -0.0081,0.06152 -0.04812,0.104316 -0.03949,0.04226 -0.09911,0.04642 z m 0.01134,-0.08663 q 0.01938,-0.0014 0.02883,-0.01713 0.0096,-0.01627 0.01272,-0.04039 l 0.03533,-0.269732 q 0.0032,-0.02461 -0.0023,-0.03935 -0.0055,-0.01474 -0.02483,-0.01339 -0.01938,0.0014 -0.02882,0.01713 -0.0095,0.01578 -0.01272,0.0404 l -0.03533,0.269731 q -0.0032,0.02461 0.0023,0.03934 0.0055,0.01474 0.02483,0.01339 z m 0.138683,0.252704 0.09476,-0.72355 0.100342,-0.007 -0.0047,0.03544 q 0.02119,-0.01904 0.04373,-0.03329 0.02254,-0.01425 0.04141,-0.01557 0.02583,-0.0018 0.04066,0.01277 0.01538,0.01405 0.02067,0.03756 0.0058,0.0235 0.0024,0.04958 l -0.04499,0.343564 q -0.0034,0.02609 -0.01562,0.05132 -0.01213,0.02474 -0.03148,0.0412 -0.01939,0.01647 -0.04422,0.0182 -0.02086,0.0015 -0.03906,-0.01 -0.01813,-0.0119 -0.03476,-0.02781 l -0.02888,0.22051 z m 0.170574,-0.280148 q 0.01142,-7.97e-4 0.01728,-0.008 0.0063,-0.0072 0.0082,-0.02105 l 0.03958,-0.302217 q 0.0025,-0.0187 -0.0017,-0.02767 -0.0037,-0.0091 -0.01515,-0.0083 -0.01093,7.63e-4 -0.02407,0.01098 -0.0131,0.0097 -0.01496,0.02397 l -0.03958,0.302217 q -0.0016,0.01182 0.009,0.02131 0.01058,0.0095 0.0215,0.0087 z m 0.155693,0.07398 0.07052,-0.53848 0.100342,-0.007 -0.006,0.04529 q 0.02724,-0.02384 0.0491,-0.0405 0.02242,-0.01717 0.04131,-0.01849 0.02681,-0.0018 0.04083,0.01519 0.014,0.01706 0.01887,0.04014 0.0242,-0.02316 0.04956,-0.04395 0.02586,-0.02083 0.0497,-0.02249 0.02483,-0.0017 0.03966,0.01283 0.01483,0.01456 0.02012,0.03811 0.0052,0.02353 0.0019,0.04913 l -0.05776,0.441021 -0.09438,0.0066 0.05518,-0.421332 q 0.002,-0.01575 -0.005,-0.02159 -0.0067,-0.0058 -0.01804,-0.005 -0.01142,7.98e-4 -0.02303,0.01042 -0.01151,0.0091 -0.01809,0.01785 l -0.05557,0.424288 -0.09437,0.0066 0.05518,-0.421333 q 0.002,-0.01575 -0.005,-0.02159 -0.0067,-0.0058 -0.01804,-0.005 -0.01142,7.97e-4 -0.02302,0.01042 -0.01151,0.0091 -0.01808,0.01785 l -0.05557,0.424285 z m 0.591099,-0.03346 q -0.06011,0.0042 -0.08953,-0.03423 -0.02885,-0.03895 -0.02105,-0.0985 l 0.03545,-0.270716 q 0.0083,-0.063 0.04767,-0.104771 0.03943,-0.04176 0.101034,-0.04606 0.04024,-0.0028 0.06665,0.01338 0.02692,0.01616 0.0382,0.0466 0.01134,0.02993 0.0061,0.06981 l -0.0205,0.156523 -0.165915,0.01158 -0.01534,0.117147 q -0.0027,0.02018 0.004,0.03678 0.0072,0.01608 0.02563,0.01479 0.01938,-0.0014 0.02938,-0.01765 0.01048,-0.01633 0.01345,-0.03899 l 0.0077,-0.05906 0.09339,-0.0065 -0.0082,0.06202 q -0.0082,0.06251 -0.0475,0.103293 -0.03874,0.04025 -0.100839,0.04459 z m 0.0083,-0.334174 0.07252,-0.005 0.0099,-0.0758 q 0.0029,-0.02215 -0.0029,-0.03784 -0.0053,-0.01622 -0.02563,-0.01479 -0.01887,0.0013 -0.03008,0.01918 -0.01117,0.01736 -0.01394,0.03852 z m 0.165574,0.31423 0.07051,-0.538367 0.10034,-0.007 -0.006,0.04529 q 0.02014,-0.01847 0.04482,-0.03775 0.02473,-0.01976 0.04362,-0.02108 0.02483,-0.0017 0.03966,0.01283 0.01483,0.01456 0.02012,0.0381 0.0052,0.02353 0.0019,0.04913 l -0.05776,0.441021 -0.100314,0.007 0.05518,-0.421333 q 0.002,-0.01575 -0.0026,-0.02176 -0.0046,-0.006 -0.01754,-0.005 -0.01093,7.63e-4 -0.0199,0.0092 -0.0084,0.008 -0.01622,0.01869 l -0.05557,0.424286 z m 0.446063,-0.02335 q -0.04718,0.0033 -0.06932,-0.01564 -0.02213,-0.01895 -0.02653,-0.05667 -0.0039,-0.03777 0.003,-0.09092 l 0.03739,-0.285482 -0.05067,0.0036 0.01173,-0.08958 0.05067,-0.0036 0.01741,-0.132898 0.100342,-0.007 -0.01741,0.132897 0.06905,-0.0049 -0.01173,0.08958 -0.06905,0.0049 -0.03926,0.299758 q -0.0041,0.03149 0.0033,0.04609 0.0075,0.0141 0.02887,0.01262 0.0095,-6.61e-4 0.01657,-0.0026 0.0077,-0.002 0.01238,-0.0043 l -0.01192,0.09106 q -0.01041,0.0047 -0.0227,0.0079 -0.01181,0.0038 -0.03216,0.0051 z"
           id="text2"
           aria-label="a stress- and bloat-free Git workflow for modern web development"
           inkscape:label="tagline-bg" />
        <path
           style="font-size:1.76389px;font-family:'League Gothic';-inkscape-font-specification:'League Gothic';letter-spacing:0px;word-spacing:0px;fill:#ffffff;fill-opacity:1;stroke:none;stroke-width:0.0264583;stroke-dasharray:none;stroke-opacity:1"
           d="m 63.796973,86.091922 q -0.03477,0.0024 -0.05553,-0.03074 -0.02076,-0.03317 -0.01135,-0.10504 0.0091,-0.0694 0.04444,-0.113813 0.03585,-0.04445 0.100016,-0.07965 0.02016,-0.01112 0.03411,-0.01994 0.01395,-0.0088 0.01783,-0.01587 l 0.0077,-0.05906 q 0.0027,-0.02018 -3.93e-4,-0.03411 -0.0025,-0.01445 -0.02091,-0.01317 -0.01689,0.0012 -0.02491,0.01734 -0.008,0.01568 -0.01104,0.03882 l -0.0034,0.0256 -0.100342,0.007 0.0029,-0.02263 q 0.0058,-0.0443 0.02737,-0.0775 0.02214,-0.03373 0.05469,-0.05308 0.03312,-0.01986 0.07186,-0.02257 0.03725,-0.0026 0.06232,0.01272 0.02513,0.01483 0.0361,0.0438 0.01154,0.02847 0.0065,0.06685 l -0.04203,0.320921 q -0.0047,0.03592 -0.0053,0.05597 -5.42e-4,0.01954 5e-6,0.03707 l -0.09835,0.0069 q -0.0053,-0.0074 -0.005,-0.02257 10e-4,-0.01519 0.0017,-0.0201 l -0.007,4.84e-4 q -0.01539,0.02351 -0.03662,0.03913 -0.02074,0.0156 -0.04559,0.01733 z m 0.05349,-0.100303 q 0.01739,-0.0012 0.03085,-0.01387 0.01397,-0.01269 0.01577,-0.02647 l 0.01676,-0.127975 q -0.03826,0.01779 -0.05921,0.04998 -0.02039,0.03167 -0.02542,0.07006 -0.0022,0.01674 0.002,0.03301 0.0042,0.01629 0.01917,0.01524 z m 0.469087,0.06381 q -0.03526,0.0025 -0.06005,-0.0075 -0.02478,-0.01 -0.03933,-0.03041 -0.01449,-0.02094 -0.01949,-0.05034 -0.0045,-0.02944 3.45e-4,-0.06635 l 0.09339,-0.0065 q -0.0043,0.03298 0.0028,0.05687 0.0078,0.02336 0.0331,0.02159 0.02185,-0.0016 0.0307,-0.02018 0.0088,-0.01865 0.01187,-0.04229 0.0036,-0.02757 -0.01451,-0.05459 -0.01755,-0.02755 -0.03794,-0.04857 -0.03509,-0.03657 -0.05688,-0.07309 -0.02129,-0.03656 -0.01453,-0.08824 0.008,-0.06103 0.04518,-0.100693 0.03719,-0.03966 0.0968,-0.04383 0.03576,-0.0025 0.05887,0.0052 0.02361,0.0076 0.03606,0.02528 0.01245,0.01765 0.01537,0.04428 0.0034,0.02659 -0.0013,0.06202 l -0.09335,0.0065 q 0.0034,-0.0256 3.41e-4,-0.04391 -0.003,-0.01832 -0.02487,-0.01679 -0.01788,0.0013 -0.02734,0.01703 -0.0094,0.01529 -0.01246,0.03842 -0.0036,0.02707 0.0066,0.04733 0.0107,0.01974 0.03756,0.04761 0.03383,0.0347 0.0601,0.07482 0.02675,0.04008 0.02024,0.08978 -0.0042,0.03248 -0.01677,0.06018 -0.01197,0.02766 -0.03147,0.04853 -0.01897,0.02084 -0.04423,0.03333 -0.02477,0.01246 -0.05507,0.01458 z m 0.313949,-0.02192 q -0.04718,0.0033 -0.06932,-0.01564 -0.02212,-0.01894 -0.02653,-0.05667 -0.0039,-0.03777 0.003,-0.09092 l 0.03739,-0.285482 -0.05067,0.0036 0.01173,-0.08958 0.05067,-0.0036 0.01741,-0.132898 0.100343,-0.007 -0.01741,0.132896 0.06904,-0.0049 -0.01173,0.08957 -0.06904,0.0049 -0.03926,0.299757 q -0.0041,0.03149 0.0033,0.04609 0.0075,0.0141 0.02886,0.01262 0.0095,-6.62e-4 0.01658,-0.0026 0.0077,-0.002 0.01237,-0.0042 l -0.01192,0.09106 q -0.01041,0.0047 -0.02269,0.0079 -0.01182,0.0038 -0.03217,0.0051 z m 0.08498,-0.01375 0.07052,-0.538477 0.100342,-0.007 -0.0079,0.06005 q 0.0055,-0.0199 0.02295,-0.03623 0.0174,-0.01633 0.04042,-0.02672 0.02351,-0.01045 0.04587,-0.01201 l -0.01444,0.110255 q -0.0061,-0.002 -0.01354,-0.0019 -0.0068,-5.25e-4 -0.01376,-3.9e-5 -0.03279,0.0023 -0.05497,0.0214 -0.02219,0.0191 -0.02619,0.04961 l -0.04899,0.374081 z m 0.354643,-0.01695 q -0.0601,0.0042 -0.08953,-0.03423 -0.02885,-0.03895 -0.02105,-0.09851 l 0.03545,-0.270716 q 0.0083,-0.063 0.04767,-0.104771 0.03942,-0.04176 0.101032,-0.04606 0.04024,-0.0028 0.06667,0.01338 0.02692,0.01616 0.0382,0.0466 0.01134,0.02993 0.0061,0.06981 l -0.0205,0.156522 -0.165915,0.01158 -0.01534,0.117147 q -0.0027,0.02018 0.004,0.03678 0.0072,0.01608 0.02563,0.01479 0.01938,-0.0014 0.02938,-0.01765 0.01048,-0.01633 0.01345,-0.03899 l 0.0077,-0.05906 0.09339,-0.0065 -0.0082,0.06202 q -0.0082,0.06251 -0.04748,0.103302 -0.03874,0.04025 -0.100839,0.04459 z m 0.0083,-0.334175 0.07252,-0.005 0.0099,-0.0758 q 0.0029,-0.02215 -0.0029,-0.03784 -0.0053,-0.01621 -0.02563,-0.01479 -0.01886,0.0013 -0.03008,0.01918 -0.01117,0.01736 -0.01394,0.03852 z m 0.292705,0.313158 q -0.03526,0.0025 -0.06005,-0.0075 -0.02478,-0.01 -0.03933,-0.03041 -0.01449,-0.02094 -0.0195,-0.05033 -0.0045,-0.02944 3.45e-4,-0.06635 l 0.09339,-0.0065 q -0.0043,0.03298 0.0028,0.05687 0.0078,0.02336 0.0331,0.02159 0.02186,-0.0016 0.03069,-0.02018 0.0088,-0.01865 0.01187,-0.04229 0.0036,-0.02757 -0.01451,-0.05458 -0.01756,-0.02755 -0.03793,-0.04857 -0.03508,-0.03656 -0.05688,-0.07309 -0.02129,-0.03656 -0.01453,-0.08824 0.008,-0.06103 0.04519,-0.100693 0.03719,-0.03966 0.0968,-0.04383 0.03576,-0.0025 0.05887,0.0052 0.02361,0.0076 0.03606,0.02527 0.01245,0.01766 0.01537,0.04428 0.0034,0.02659 -0.0013,0.06202 l -0.0934,0.0065 q 0.0034,-0.0256 3.4e-4,-0.04391 -0.003,-0.01832 -0.02487,-0.01679 -0.01788,0.0013 -0.02734,0.01703 -0.0094,0.01529 -0.01246,0.03842 -0.0036,0.02707 0.0066,0.04733 0.0107,0.01973 0.03756,0.04761 0.03385,0.0347 0.0601,0.07482 0.02675,0.04008 0.02024,0.08978 -0.0042,0.03248 -0.01678,0.06018 -0.01197,0.02766 -0.03146,0.04853 -0.01898,0.02084 -0.04423,0.03333 -0.02477,0.01246 -0.05506,0.01457 z m 0.298052,-0.02081 q -0.03526,0.0025 -0.06005,-0.0075 -0.02477,-0.01 -0.03933,-0.03041 -0.01448,-0.02094 -0.01949,-0.05034 -0.0045,-0.02944 3.44e-4,-0.06635 l 0.09339,-0.0065 q -0.0043,0.03298 0.0028,0.05687 0.0078,0.02336 0.0331,0.02159 0.02185,-0.0016 0.03069,-0.02018 0.0088,-0.01865 0.01187,-0.04229 0.0036,-0.02757 -0.01451,-0.05459 -0.01756,-0.02755 -0.03794,-0.04857 -0.03508,-0.03656 -0.05688,-0.07309 -0.02129,-0.03656 -0.01453,-0.08824 0.008,-0.06103 0.04519,-0.100693 0.03719,-0.03966 0.0968,-0.04383 0.03576,-0.0025 0.05887,0.0052 0.02361,0.0076 0.03606,0.02528 0.01245,0.01766 0.01537,0.04428 0.0034,0.02659 -0.0013,0.06202 l -0.09339,0.0065 q 0.0034,-0.0256 3.41e-4,-0.04391 -0.003,-0.01831 -0.02487,-0.01679 -0.01788,0.0013 -0.02734,0.01703 -0.0094,0.01529 -0.01246,0.03842 -0.0036,0.02707 0.0066,0.04733 0.0107,0.01974 0.03756,0.04761 0.03385,0.0347 0.0601,0.07482 0.02675,0.04008 0.02024,0.08978 -0.0042,0.03248 -0.01677,0.06018 -0.01197,0.02766 -0.03146,0.04853 -0.01897,0.02084 -0.04423,0.03333 -0.02477,0.01246 -0.05507,0.01458 z m 0.208487,-0.238903 0.01225,-0.09352 0.144059,-0.01006 -0.01224,0.09352 z m 0.405999,0.196 q -0.03477,0.0024 -0.05552,-0.03074 -0.02076,-0.03317 -0.01135,-0.10504 0.0091,-0.0694 0.04444,-0.113812 0.03585,-0.04445 0.100008,-0.07965 0.02016,-0.01111 0.03411,-0.01994 0.01395,-0.0088 0.01783,-0.01587 l 0.0077,-0.05906 q 0.0027,-0.02018 -3.92e-4,-0.03412 -0.0025,-0.01445 -0.02091,-0.01317 -0.01689,0.0012 -0.02491,0.01734 -0.008,0.01568 -0.01104,0.03882 l -0.0034,0.0256 -0.100342,0.007 0.0029,-0.02263 q 0.0058,-0.0443 0.02738,-0.0775 0.02214,-0.03373 0.05469,-0.05308 0.03312,-0.01987 0.07186,-0.02257 0.03725,-0.0026 0.06232,0.01272 0.02513,0.01483 0.03611,0.0438 0.01153,0.02847 0.0065,0.06685 l -0.04203,0.320922 q -0.0047,0.03592 -0.0053,0.05597 -5.43e-4,0.01955 6e-6,0.03707 l -0.09836,0.0069 q -0.0053,-0.0074 -0.005,-0.02257 0.001,-0.01519 0.0017,-0.0201 l -0.007,4.86e-4 q -0.01539,0.0235 -0.03662,0.03913 -0.02074,0.0156 -0.04559,0.01733 z m 0.05349,-0.100302 q 0.01738,-0.0012 0.03085,-0.01387 0.01397,-0.01269 0.01577,-0.02646 l 0.01676,-0.127975 q -0.03825,0.01779 -0.05921,0.04998 -0.02038,0.03167 -0.0254,0.07006 -0.0022,0.01674 0.002,0.03302 0.0042,0.01629 0.01917,0.01524 z m 0.18697,0.0757 0.07052,-0.53848 0.100341,-0.007 -0.006,0.04528 q 0.02014,-0.01847 0.04481,-0.03775 0.02473,-0.01976 0.04362,-0.02108 0.02483,-0.0017 0.03966,0.01283 0.01483,0.01456 0.02012,0.0381 0.0052,0.02353 0.0019,0.04913 l -0.05776,0.441022 -0.100342,0.007 0.05518,-0.421334 q 0.002,-0.01575 -0.0026,-0.02176 -0.0046,-0.006 -0.01754,-0.005 -0.01093,7.63e-4 -0.0199,0.0092 -0.0084,0.008 -0.01622,0.01869 l -0.05557,0.424286 z m 0.378487,-0.01861 q -0.02483,0.0017 -0.04022,-0.01232 -0.01539,-0.01405 -0.02117,-0.03754 -0.0058,-0.02399 -0.0023,-0.05007 l 0.04499,-0.343566 q 0.0034,-0.02608 0.01499,-0.05079 0.01213,-0.02474 0.03147,-0.04121 0.01945,-0.01696 0.04478,-0.01873 0.01886,-0.0013 0.03806,0.01003 0.01918,0.01135 0.03574,0.02773 l 0.02888,-0.22051 0.100342,-0.007 -0.09476,0.72355 -0.100341,0.007 0.0047,-0.03544 q -0.02213,0.01862 -0.04324,0.03325 -0.02105,0.01415 -0.04191,0.01561 z m 0.05993,-0.09685 q 0.01143,-7.98e-4 0.02259,-0.01088 0.01164,-0.01011 0.01344,-0.02386 l 0.03958,-0.302217 q 0.0016,-0.01182 -0.0075,-0.02142 -0.0085,-0.0096 -0.02001,-0.0088 -0.01093,7.63e-4 -0.01911,0.01063 -0.0081,0.0094 -0.01,0.02362 l -0.03958,0.302217 q -0.0018,0.01377 0.0039,0.02265 0.0057,0.0089 0.01666,0.0082 z m 0.518285,0.05647 q -0.02086,0.0015 -0.03856,-0.01 -0.01763,-0.01193 -0.03524,-0.02777 l -0.0047,0.03544 -0.100342,0.007 0.09476,-0.723551 0.100341,-0.007 -0.02888,0.22051 q 0.02119,-0.01904 0.04373,-0.03329 0.02255,-0.01425 0.04141,-0.01556 0.02584,-0.0018 0.04066,0.01277 0.01539,0.01405 0.02067,0.03756 0.0058,0.0235 0.0024,0.04958 l -0.04499,0.343563 q -0.0034,0.02608 -0.01562,0.05131 -0.01213,0.02474 -0.03148,0.0412 -0.01938,0.01647 -0.04422,0.0182 z m -0.03545,-0.09019 q 0.01142,-7.97e-4 0.01911,-0.01063 0.0082,-0.0099 0.01,-0.02362 l 0.03958,-0.302217 q 0.0018,-0.01428 -0.0039,-0.02265 -0.0051,-0.0089 -0.01664,-0.0082 -0.01093,7.63e-4 -0.02272,0.01181 -0.01177,0.01104 -0.01332,0.02287 l -0.03958,0.302217 q -0.0018,0.01378 0.0073,0.02241 0.0092,0.0086 0.02013,0.0079 z m 0.16364,0.07343 0.09476,-0.723551 0.100342,-0.007 -0.09476,0.723551 z m 0.277779,-0.01258 q -0.06011,0.0042 -0.08916,-0.03328 -0.02898,-0.03797 -0.02092,-0.09949 l 0.03533,-0.269699 q 0.0081,-0.06152 0.04754,-0.103791 0.03955,-0.04275 0.09967,-0.04694 0.0596,-0.0041 0.0886,0.0338 0.02955,0.03745 0.0215,0.09897 l -0.03533,0.269732 q -0.0081,0.06152 -0.04812,0.104316 -0.03949,0.04226 -0.09911,0.04642 z m 0.01134,-0.08663 q 0.01938,-0.0014 0.02882,-0.01713 0.0096,-0.01627 0.01272,-0.0404 l 0.03533,-0.269732 q 0.0032,-0.02461 -0.0023,-0.03935 -0.0055,-0.01474 -0.02483,-0.01339 -0.01938,0.0014 -0.02882,0.01713 -0.0095,0.01578 -0.01272,0.0404 l -0.03533,0.269732 q -0.0032,0.02461 0.0023,0.03935 0.0055,0.01474 0.02483,0.01339 z m 0.239881,0.07006 q -0.03477,0.0024 -0.05552,-0.03074 -0.02076,-0.03318 -0.01135,-0.105039 0.0091,-0.06941 0.04444,-0.113814 0.03585,-0.04445 0.100016,-0.07965 0.02016,-0.01111 0.03411,-0.01994 0.01396,-0.0088 0.01783,-0.01587 l 0.0077,-0.05906 q 0.0027,-0.02018 -3.91e-4,-0.03412 -0.0025,-0.01445 -0.02091,-0.01317 -0.01689,0.0012 -0.02492,0.01734 -0.008,0.01568 -0.01104,0.03882 l -0.0034,0.0256 -0.100341,0.007 0.0029,-0.02264 q 0.0058,-0.04429 0.02737,-0.0775 0.02214,-0.03373 0.0547,-0.05308 0.03312,-0.01986 0.07186,-0.02257 0.03725,-0.0026 0.06233,0.01272 0.02513,0.01483 0.0361,0.0438 0.01154,0.02847 0.0065,0.06685 l -0.04203,0.320921 q -0.0047,0.03593 -0.0053,0.05597 -5.43e-4,0.01955 6e-6,0.03707 l -0.09836,0.0069 q -0.0053,-0.0074 -0.005,-0.02258 10e-4,-0.01519 0.0017,-0.0201 l -0.007,4.85e-4 q -0.01538,0.0235 -0.03662,0.03913 -0.02074,0.0156 -0.04558,0.01733 z m 0.05349,-0.100303 q 0.01738,-0.0012 0.03085,-0.01387 0.01397,-0.01269 0.01577,-0.02647 l 0.01676,-0.127973 q -0.03826,0.01779 -0.05921,0.04998 -0.02039,0.03166 -0.02542,0.07006 -0.0022,0.01674 0.002,0.03302 0.0042,0.01629 0.01917,0.01524 z m 0.331984,0.07339 q -0.04718,0.0033 -0.06932,-0.01564 -0.02214,-0.01894 -0.02653,-0.05667 -0.0039,-0.03777 0.003,-0.09092 l 0.03739,-0.285483 -0.05067,0.0036 0.01173,-0.08957 0.05067,-0.0036 0.01741,-0.132897 0.100342,-0.007 -0.01741,0.132897 0.06907,-0.0049 -0.01173,0.08957 -0.06906,0.0049 -0.03926,0.299757 q -0.0041,0.03149 0.0033,0.04609 0.0075,0.01411 0.02886,0.01262 0.0095,-6.61e-4 0.01658,-0.0026 0.0077,-0.002 0.01239,-0.0043 l -0.01192,0.09106 q -0.01041,0.0047 -0.0227,0.0079 -0.01181,0.0038 -0.03216,0.0051 z m 0.124532,-0.233041 0.01225,-0.09352 0.144059,-0.01006 -0.01225,0.09352 z m 0.206838,0.202102 0.05879,-0.448897 -0.05067,0.0036 0.01173,-0.08957 0.05067,-0.0036 0.0039,-0.02954 q 0.01,-0.07629 0.05117,-0.120135 0.04174,-0.04438 0.09986,-0.04843 0.01292,-9.02e-4 0.02351,8.11e-4 0.0106,0.0017 0.01706,0.005 l -0.01134,0.08663 q -0.0089,-0.0067 -0.02884,-0.0053 -0.01441,0.001 -0.03025,0.01675 -0.01534,0.0157 -0.01915,0.04474 l -0.0055,0.04233 0.0606,-0.0042 -0.01173,0.08957 -0.0606,0.0042 -0.05879,0.448898 z m 0.201682,-0.01408 0.07052,-0.538479 0.100343,-0.007 -0.0079,0.06005 q 0.0055,-0.01989 0.02294,-0.03623 0.0174,-0.01633 0.04042,-0.02672 0.02351,-0.01045 0.04586,-0.01201 l -0.01444,0.110256 q -0.0061,-0.002 -0.01353,-0.0019 -0.0068,-5.24e-4 -0.01377,-3.8e-5 -0.03278,0.0023 -0.05497,0.02139 -0.02219,0.0191 -0.02619,0.04961 l -0.04899,0.374082 z m 0.354642,-0.01695 q -0.0601,0.0042 -0.08953,-0.03424 -0.02885,-0.03895 -0.02105,-0.09851 l 0.03545,-0.270717 q 0.0083,-0.063 0.04767,-0.10477 0.03942,-0.04176 0.101033,-0.04606 0.04025,-0.0028 0.06667,0.01338 0.02692,0.01616 0.0382,0.0466 0.01134,0.02993 0.0061,0.06981 l -0.0205,0.156523 -0.165915,0.01158 -0.01534,0.117146 q -0.0027,0.02018 0.004,0.03678 0.0072,0.01608 0.02563,0.01479 0.01938,-0.0014 0.02938,-0.01765 0.01048,-0.01633 0.01345,-0.03897 l 0.0077,-0.05906 0.09339,-0.0065 -0.0082,0.06201 q -0.0082,0.06251 -0.04748,0.103302 -0.03874,0.04026 -0.100842,0.0446 z m 0.0083,-0.334177 0.07252,-0.005 0.0099,-0.0758 q 0.0029,-0.02215 -0.0029,-0.03784 -0.0053,-0.01621 -0.02563,-0.01479 -0.01887,0.0013 -0.03008,0.01918 -0.01117,0.01736 -0.01394,0.03853 z m 0.290718,0.313297 q -0.06011,0.0042 -0.08953,-0.03423 -0.02887,-0.03895 -0.02107,-0.09851 l 0.03546,-0.270694 q 0.0083,-0.063 0.04769,-0.104771 0.03942,-0.04176 0.101033,-0.04607 0.04025,-0.0028 0.06667,0.01338 0.02692,0.01616 0.0382,0.0466 0.01134,0.02993 0.0061,0.06981 l -0.0205,0.156524 -0.165905,0.01158 -0.01534,0.117147 q -0.0027,0.02017 0.004,0.03678 0.0072,0.01608 0.02563,0.01479 0.01938,-0.0014 0.02938,-0.01765 0.01048,-0.01633 0.01345,-0.03897 l 0.0077,-0.05906 0.09339,-0.0065 -0.0082,0.06201 q -0.0082,0.06251 -0.0475,0.103303 -0.03874,0.04026 -0.100841,0.0446 z m 0.0083,-0.334174 0.07252,-0.005 0.0099,-0.0758 q 0.0029,-0.02215 -0.0029,-0.03784 -0.0053,-0.01621 -0.02563,-0.01479 -0.01886,0.0013 -0.03008,0.01918 -0.01117,0.01736 -0.01394,0.03853 z m 0.455639,0.301781 q -0.0442,0.0031 -0.06932,-0.01564 -0.02511,-0.01874 -0.03389,-0.05324 -0.0083,-0.03454 -0.0025,-0.07884 l 0.05582,-0.426256 q 0.0058,-0.0438 0.02777,-0.08046 0.02202,-0.03665 0.05702,-0.05958 0.03507,-0.02342 0.07878,-0.02648 0.03328,-0.0023 0.05799,0.0082 0.02528,0.01 0.04082,0.03031 0.01604,0.02034 0.02173,0.04823 0.0062,0.02737 0.0019,0.05985 l -0.01457,0.11124 -0.107303,0.0075 0.01457,-0.111241 q 0.0028,-0.02165 -0.003,-0.03685 -0.0059,-0.01519 -0.02576,-0.0138 -0.01938,0.0014 -0.03002,0.01868 -0.01009,0.0168 -0.01273,0.03699 l -0.05699,0.435114 q -0.0028,0.02117 0.0035,0.03682 0.0063,0.01516 0.02526,0.01384 0.01987,-0.0014 0.02989,-0.01769 0.01009,-0.01681 0.01286,-0.03797 l 0.01586,-0.121082 -0.04273,0.003 0.01302,-0.09943 0.150019,-0.01047 -0.04719,0.3603 -0.06358,0.0044 -0.0078,-0.03847 q -0.0168,0.02312 -0.04034,0.03744 -0.02296,0.0138 -0.0493,0.01564 z m 0.230535,-0.02391 0.07052,-0.538479 0.100342,-0.007 -0.07052,0.538479 z m 0.08174,-0.624123 0.01302,-0.09943 0.10034,-0.007 -0.01302,0.09943 z m 0.214283,0.611258 q -0.04719,0.0033 -0.06932,-0.01564 -0.02213,-0.01894 -0.02653,-0.05667 -0.0039,-0.03777 0.003,-0.09092 l 0.03739,-0.285482 -0.05067,0.0036 0.01173,-0.08957 0.05067,-0.0036 0.01741,-0.132897 0.100343,-0.007 -0.01741,0.132896 0.06905,-0.0049 -0.01173,0.08957 -0.06905,0.0049 -0.03926,0.299757 q -0.0041,0.03149 0.0033,0.04609 0.0075,0.01411 0.02886,0.01262 0.0095,-6.61e-4 0.01658,-0.0026 0.0077,-0.002 0.01239,-0.0043 l -0.01192,0.09106 q -0.01041,0.0047 -0.0227,0.0079 -0.01181,0.0038 -0.03216,0.0051 z m 0.301073,-0.02883 -0.01,-0.53286 0.09636,-0.0067 -0.01005,0.279672 -0.0032,0.05486 0.0061,-4.2e-4 0.01212,-0.05548 0.07859,-0.284459 0.0596,-0.0041 0.0049,0.278633 -0.0023,0.0548 0.0061,-4.2e-4 0.0112,-0.05541 0.0637,-0.283418 0.09636,-0.0067 -0.151006,0.544098 -0.08346,0.0059 -0.0051,-0.254229 0.0017,-0.04986 -0.0039,2.78e-4 -0.01148,0.05054 -0.0724,0.259641 z m 0.493866,-0.02767 q -0.06011,0.0042 -0.08916,-0.03327 -0.02898,-0.03797 -0.02092,-0.09949 l 0.03533,-0.269732 q 0.0081,-0.06152 0.04754,-0.103792 0.03955,-0.04275 0.09967,-0.04695 0.0596,-0.0041 0.0886,0.0338 0.02955,0.03745 0.0215,0.09897 l -0.03533,0.269732 q -0.0081,0.06152 -0.04812,0.104317 -0.03948,0.04226 -0.09911,0.04642 z m 0.01134,-0.08663 q 0.01938,-0.0014 0.02882,-0.01713 0.0096,-0.01627 0.01272,-0.04039 l 0.03533,-0.269712 q 0.0032,-0.0246 -0.0023,-0.03934 -0.0055,-0.01474 -0.02483,-0.01339 -0.01938,0.0014 -0.02882,0.01713 -0.0095,0.01578 -0.01272,0.04039 l -0.03533,0.269732 q -0.0032,0.02461 0.0023,0.03934 0.0055,0.01474 0.02483,0.01339 z m 0.162921,0.06763 0.07052,-0.538485 0.100342,-0.007 -0.0079,0.06005 q 0.0055,-0.01989 0.02295,-0.03623 0.0174,-0.01633 0.04042,-0.02672 0.02351,-0.01045 0.04587,-0.01201 l -0.01443,0.110256 q -0.0061,-0.002 -0.01353,-0.0019 -0.0068,-5.24e-4 -0.01378,-3.8e-5 -0.03279,0.0023 -0.05497,0.02139 -0.02219,0.0191 -0.02619,0.04962 l -0.04899,0.374081 z m 0.235461,-0.01643 0.09476,-0.72355 0.100342,-0.007 -0.04267,0.325845 -0.0023,0.01772 0.0049,-3.42e-4 0.0083,-0.01814 0.06711,-0.144172 0.09538,-0.0067 -0.10044,0.180638 0.04382,0.35687 -0.101333,0.0071 -0.02117,-0.21409 1.1e-5,-0.0078 -0.001,7e-5 -0.02105,0.04048 -0.02437,0.186056 z m 0.332326,-0.0232 0.05879,-0.448895 -0.05067,0.0036 0.01173,-0.08958 0.05067,-0.0036 0.0019,-0.01476 q 0.0071,-0.05365 0.02213,-0.09421 0.01511,-0.04055 0.04432,-0.06405 0.02972,-0.02402 0.0799,-0.02752 0.02186,-0.0016 0.0414,-4.37e-4 0.0201,5.96e-4 0.02924,0.0023 l 0.07948,-0.0056 -0.09476,0.723551 -0.100342,0.007 0.08367,-0.63889 q -0.0062,-5.63e-4 -0.01372,-4.96e-4 -0.0074,3e-5 -0.01881,8.24e-4 -0.02235,0.0016 -0.03436,0.02191 -0.01156,0.02031 -0.01478,0.04492 l -0.005,0.0384 0.05067,-0.0036 -0.01173,0.08958 -0.05067,0.0036 -0.0588,0.448896 z m 0.451643,-0.02472 q -0.06012,0.0042 -0.08916,-0.03328 -0.02898,-0.03797 -0.02092,-0.09949 l 0.03532,-0.269674 q 0.0081,-0.06152 0.04754,-0.103791 0.03955,-0.04275 0.09967,-0.04695 0.0596,-0.0041 0.0886,0.0338 0.02955,0.03744 0.0215,0.09897 l -0.03533,0.269732 q -0.0081,0.06152 -0.04812,0.104317 -0.03949,0.04227 -0.09911,0.04643 z m 0.01134,-0.08663 q 0.01938,-0.0014 0.02882,-0.01713 0.0096,-0.01627 0.01272,-0.0404 l 0.03533,-0.269732 q 0.0032,-0.02461 -0.0023,-0.03934 -0.0055,-0.01474 -0.02483,-0.01339 -0.01938,0.0014 -0.02882,0.01713 -0.0095,0.01578 -0.01272,0.04039 l -0.03533,0.269732 q -0.0032,0.02462 0.0023,0.03935 0.0055,0.01474 0.02482,0.01339 z m 0.226009,0.06323 -0.0099,-0.53286 0.09636,-0.0067 -0.01005,0.279671 -0.0032,0.05484 0.0061,-4.2e-4 0.01212,-0.05546 0.07859,-0.284457 0.0596,-0.0041 0.0049,0.278632 -0.0023,0.05478 0.0061,-4.2e-4 0.0112,-0.05539 0.06369,-0.283417 0.09636,-0.0067 -0.151006,0.544096 -0.08346,0.0059 -0.005,-0.254229 0.0016,-0.04986 -0.0039,2.77e-4 -0.01148,0.05054 -0.0724,0.25964 z m 0.554875,-0.03874 0.05879,-0.448896 -0.05067,0.0036 0.01173,-0.08958 0.05067,-0.0036 0.0039,-0.02954 q 0.01,-0.07629 0.05117,-0.120135 0.04175,-0.04437 0.09986,-0.04843 0.01291,-9.01e-4 0.02351,8.11e-4 0.0106,0.0017 0.01706,0.005 l -0.01134,0.08663 q -0.0089,-0.0067 -0.02884,-0.0053 -0.01441,0.001 -0.03025,0.01674 -0.01534,0.0157 -0.01915,0.04474 l -0.0055,0.04233 0.0606,-0.0042 -0.01173,0.08958 -0.0606,0.0042 -0.05879,0.448896 z m 0.32447,-0.01584 q -0.0601,0.0042 -0.08916,-0.03329 -0.02898,-0.03797 -0.02092,-0.09949 l 0.03533,-0.269731 q 0.0081,-0.06152 0.04754,-0.103791 0.03955,-0.04275 0.09967,-0.04695 0.0596,-0.0041 0.0886,0.0338 0.02955,0.03744 0.0215,0.09897 l -0.03517,0.269763 q -0.0081,0.06152 -0.04812,0.104317 -0.03949,0.04227 -0.09911,0.04643 z m 0.01134,-0.08663 q 0.01938,-0.0014 0.02882,-0.01713 0.0096,-0.01627 0.01272,-0.04039 l 0.03533,-0.269732 q 0.0032,-0.02461 -0.0023,-0.03935 -0.0055,-0.01474 -0.02483,-0.01339 -0.01938,0.0014 -0.02882,0.01713 -0.0095,0.01578 -0.01272,0.0404 l -0.03515,0.269792 q -0.0032,0.02461 0.0023,0.03934 0.0055,0.01474 0.02483,0.01339 z m 0.162924,0.06763 0.07052,-0.538479 0.100341,-0.007 -0.0079,0.06005 q 0.0055,-0.01989 0.02295,-0.03623 0.0174,-0.01633 0.04042,-0.02672 0.02351,-0.01046 0.04588,-0.01201 l -0.01444,0.110255 q -0.0061,-0.002 -0.01354,-0.0019 -0.0068,-5.24e-4 -0.01377,-3.8e-5 -0.03279,0.0023 -0.05498,0.0214 -0.02219,0.0191 -0.02619,0.04961 l -0.04899,0.37408 z m 0.38846,-0.02712 0.07052,-0.53848 0.100343,-0.007 -0.006,0.04528 q 0.02725,-0.02384 0.0491,-0.0405 0.02242,-0.01717 0.04131,-0.01849 0.02682,-0.0018 0.04083,0.01519 0.014,0.01706 0.01886,0.04015 0.02419,-0.02316 0.04956,-0.04395 0.02586,-0.02083 0.0497,-0.02249 0.02484,-0.0017 0.03966,0.01283 0.01483,0.01456 0.02012,0.0381 0.0052,0.02353 0.0019,0.04913 l -0.05776,0.441022 -0.09438,0.0066 0.05518,-0.421333 q 0.002,-0.01575 -0.005,-0.02159 -0.0067,-0.0058 -0.01804,-0.005 -0.01142,7.97e-4 -0.02302,0.01042 -0.01151,0.0091 -0.01808,0.01785 l -0.05557,0.424286 -0.09438,0.0066 0.05518,-0.421332 q 0.002,-0.01575 -0.005,-0.02159 -0.0067,-0.0058 -0.01804,-0.005 -0.01143,7.98e-4 -0.02302,0.01042 -0.01151,0.0091 -0.01808,0.01785 l -0.05557,0.424285 z m 0.590735,-0.03443 q -0.06011,0.0042 -0.08916,-0.03327 -0.02898,-0.03797 -0.02092,-0.09949 l 0.03533,-0.269731 q 0.0081,-0.06152 0.04754,-0.103791 0.03955,-0.04275 0.09967,-0.04695 0.0596,-0.0041 0.0886,0.0338 0.02955,0.03744 0.0215,0.09897 l -0.03533,0.269732 q -0.0081,0.06152 -0.04812,0.104316 -0.03951,0.04226 -0.09911,0.04642 z m 0.01134,-0.08663 q 0.01938,-0.0014 0.02882,-0.01713 0.0096,-0.01627 0.01272,-0.04039 l 0.03533,-0.269731 q 0.0032,-0.02461 -0.0023,-0.03935 -0.0055,-0.01474 -0.02483,-0.01339 -0.01938,0.0014 -0.02883,0.01713 -0.0095,0.01578 -0.01272,0.0404 l -0.03533,0.269731 q -0.0032,0.02461 0.0023,0.03934 0.0055,0.01474 0.02483,0.01339 z m 0.234417,0.07044 q -0.02483,0.0017 -0.04022,-0.01231 -0.01539,-0.01405 -0.02118,-0.03754 -0.0058,-0.02398 -0.0023,-0.05007 l 0.04499,-0.343566 q 0.0034,-0.02608 0.01499,-0.05079 0.01213,-0.02474 0.03148,-0.0412 0.01944,-0.01696 0.04478,-0.01873 0.01886,-0.0013 0.03806,0.01003 0.01919,0.01134 0.03574,0.02773 l 0.02888,-0.220495 0.100341,-0.007 -0.09476,0.72355 -0.100342,0.007 0.0047,-0.03544 q -0.02213,0.01862 -0.04324,0.03325 -0.02105,0.01416 -0.04192,0.01561 z m 0.05993,-0.09685 q 0.01143,-7.98e-4 0.02259,-0.01088 0.01164,-0.01011 0.01344,-0.02386 l 0.03958,-0.302219 q 0.0016,-0.01182 -0.0075,-0.02142 -0.0085,-0.0096 -0.02001,-0.0088 -0.01093,7.63e-4 -0.01911,0.01063 -0.0081,0.0094 -0.01,0.02361 l -0.03958,0.302219 q -0.0018,0.01377 0.0039,0.02265 0.0057,0.0089 0.01665,0.0082 z m 0.309649,0.07105 q -0.06011,0.0042 -0.08953,-0.03424 -0.02885,-0.03895 -0.02105,-0.0985 l 0.03545,-0.270717 q 0.0083,-0.063 0.04767,-0.104771 0.03942,-0.04176 0.101034,-0.04606 0.04024,-0.0028 0.06665,0.01338 0.02692,0.01616 0.0382,0.0466 0.01133,0.02993 0.0061,0.06981 l -0.0205,0.156522 -0.165892,0.01158 -0.01534,0.117147 q -0.0027,0.02018 0.004,0.03678 0.0072,0.01608 0.02563,0.01479 0.01938,-0.0014 0.02938,-0.01765 0.01048,-0.01633 0.01345,-0.03898 l 0.0077,-0.05906 0.09339,-0.0065 -0.0082,0.06202 q -0.0082,0.06251 -0.04748,0.103291 -0.03874,0.04025 -0.100839,0.04459 z m 0.0083,-0.334175 0.07252,-0.005 0.0099,-0.0758 q 0.0029,-0.02215 -0.0029,-0.03784 -0.0053,-0.01621 -0.02563,-0.01479 -0.01887,0.0013 -0.03008,0.01918 -0.01117,0.01736 -0.01394,0.03852 z m 0.16557,0.31423 0.07052,-0.538479 0.100341,-0.007 -0.0079,0.06005 q 0.0055,-0.0199 0.02295,-0.03623 0.0174,-0.01633 0.04042,-0.02672 0.02351,-0.01045 0.04587,-0.01201 l -0.01444,0.110256 q -0.0061,-0.002 -0.01352,-0.0019 -0.0068,-5.25e-4 -0.01377,-3.9e-5 -0.03279,0.0023 -0.05498,0.0214 -0.02219,0.0191 -0.02619,0.04961 l -0.04901,0.374081 z m 0.23546,-0.01643 0.07052,-0.53848 0.100342,-0.007 -0.006,0.04529 q 0.02014,-0.01847 0.04481,-0.03776 0.02473,-0.01976 0.04362,-0.02108 0.02484,-0.0017 0.03966,0.01283 0.01483,0.01456 0.02012,0.03809 0.0052,0.02353 0.0019,0.04913 l -0.05776,0.441021 -0.100341,0.007 0.05518,-0.421333 q 0.002,-0.01575 -0.0026,-0.02176 -0.0046,-0.006 -0.01754,-0.005 -0.01093,7.63e-4 -0.0199,0.0092 -0.0084,0.008 -0.01623,0.01869 l -0.05557,0.424285 z m 0.523083,-0.03652 -0.01,-0.53286 0.09636,-0.0067 -0.01005,0.279672 -0.0032,0.05486 0.0061,-4.2e-4 0.01212,-0.05548 0.0786,-0.284458 0.0596,-0.0041 0.0049,0.278631 -0.0023,0.0548 0.0061,-4.2e-4 0.0112,-0.05541 0.06369,-0.283417 0.09636,-0.0067 -0.151005,0.544098 -0.08346,0.0059 -0.0051,-0.254229 0.0017,-0.04986 -0.0039,2.78e-4 -0.01148,0.05054 -0.0724,0.259641 z m 0.491249,-0.02648 q -0.06011,0.0042 -0.08953,-0.03423 -0.02887,-0.03895 -0.02106,-0.0985 l 0.03545,-0.270718 q 0.0083,-0.063 0.04769,-0.104773 0.03942,-0.04176 0.101033,-0.04606 0.04025,-0.0028 0.06666,0.01338 0.02693,0.01616 0.0382,0.0466 0.01134,0.02993 0.0061,0.06981 l -0.0205,0.156523 -0.165915,0.01158 -0.01534,0.117146 q -0.0027,0.02018 0.004,0.03679 0.0072,0.01608 0.02563,0.01479 0.01938,-0.0014 0.02938,-0.01765 0.01048,-0.01633 0.01345,-0.03898 l 0.0077,-0.05906 0.09339,-0.0065 -0.0082,0.06202 q -0.0082,0.06251 -0.0475,0.103292 -0.03874,0.04026 -0.100841,0.0446 z m 0.0083,-0.334176 0.07252,-0.005 0.0099,-0.0758 q 0.0029,-0.02215 -0.0029,-0.03784 -0.0053,-0.01621 -0.02563,-0.01479 -0.01886,0.0013 -0.03008,0.01917 -0.01117,0.01736 -0.01394,0.03853 z m 0.346355,0.309413 q -0.02086,0.0015 -0.03856,-0.01 -0.01763,-0.01194 -0.03524,-0.02777 l -0.0047,0.03544 -0.100342,0.007 0.09476,-0.72355 0.100341,-0.007 -0.02888,0.220512 q 0.02119,-0.01904 0.04373,-0.03328 0.02253,-0.01425 0.04141,-0.01557 0.02583,-0.0018 0.04066,0.01277 0.01539,0.01405 0.02067,0.03756 0.0058,0.0235 0.0024,0.04958 l -0.04499,0.343563 q -0.0034,0.02608 -0.01562,0.05132 -0.01213,0.02474 -0.03147,0.0412 -0.01939,0.01647 -0.04423,0.01821 z m -0.03545,-0.09019 q 0.01142,-7.97e-4 0.01911,-0.01063 0.0082,-0.0099 0.01,-0.02362 l 0.03958,-0.302217 q 0.0018,-0.01428 -0.0039,-0.02265 -0.0051,-0.0089 -0.01664,-0.0082 -0.01093,7.64e-4 -0.02272,0.01181 -0.01177,0.01104 -0.01332,0.02287 l -0.03958,0.302217 q -0.0018,0.01377 0.0073,0.02241 0.0092,0.0086 0.02013,0.0079 z m 0.383168,0.06591 q -0.02483,0.0017 -0.04022,-0.01231 -0.01539,-0.01405 -0.02118,-0.03754 -0.0058,-0.02398 -0.0023,-0.05006 l 0.04499,-0.343549 q 0.0034,-0.02608 0.01499,-0.05079 0.01213,-0.02474 0.03147,-0.0412 0.01945,-0.01696 0.04478,-0.01873 0.01886,-0.0013 0.03806,0.01003 0.01919,0.01134 0.03574,0.02773 l 0.02888,-0.22051 0.100342,-0.007 -0.09476,0.723551 -0.100342,0.007 0.0047,-0.03544 q -0.02213,0.01861 -0.04324,0.03325 -0.02105,0.01415 -0.04192,0.01561 z m 0.05993,-0.09685 q 0.01142,-7.97e-4 0.02259,-0.01088 0.01164,-0.01011 0.01345,-0.02386 l 0.03958,-0.302204 q 0.0016,-0.01182 -0.0075,-0.02142 -0.0085,-0.0096 -0.02001,-0.0088 -0.01093,7.63e-4 -0.01911,0.01063 -0.0081,0.0094 -0.01,0.02362 l -0.03958,0.302218 q -0.0018,0.01377 0.0039,0.02265 0.0057,0.0089 0.01664,0.0082 z m 0.309646,0.07105 q -0.06011,0.0042 -0.08953,-0.03423 -0.02885,-0.03895 -0.02105,-0.0985 l 0.03545,-0.270718 q 0.0083,-0.063 0.04767,-0.10477 0.03942,-0.04176 0.101034,-0.04606 0.04025,-0.0028 0.06667,0.01338 0.02692,0.01616 0.0382,0.0466 0.01134,0.02993 0.0061,0.06981 l -0.0205,0.156523 -0.165916,0.01158 -0.01534,0.117146 q -0.0027,0.02018 0.004,0.03679 0.0072,0.01608 0.02563,0.01479 0.01938,-0.0014 0.02938,-0.01765 0.01048,-0.01633 0.01345,-0.03898 l 0.0077,-0.05906 0.09339,-0.0065 -0.0082,0.06202 q -0.0082,0.06251 -0.04748,0.103291 -0.03874,0.04026 -0.100841,0.0446 z m 0.0083,-0.334175 0.07252,-0.005 0.0099,-0.0758 q 0.0029,-0.02215 -0.0029,-0.03784 -0.0053,-0.01622 -0.02563,-0.01479 -0.01886,0.0013 -0.03008,0.01917 -0.01117,0.01736 -0.01394,0.03853 z m 0.233629,0.30948 -0.01789,-0.532308 0.09735,-0.0068 -0.0071,0.309706 -0.0041,0.05394 0.008,-5.56e-4 0.01005,-0.05436 0.07464,-0.314421 0.09735,-0.0068 -0.158948,0.544653 z m 0.340236,-0.01594 q -0.0601,0.0042 -0.08953,-0.03423 -0.02885,-0.03895 -0.02105,-0.09852 l 0.03546,-0.270715 q 0.0083,-0.063 0.04767,-0.104771 0.03942,-0.04176 0.101034,-0.04606 0.04024,-0.0028 0.06667,0.01338 0.02692,0.01616 0.0382,0.0466 0.01134,0.02993 0.0061,0.06981 l -0.0205,0.156522 -0.165916,0.01158 -0.01534,0.117147 q -0.0027,0.02018 0.004,0.03678 0.0072,0.01608 0.02563,0.01479 0.01938,-0.0014 0.02938,-0.01765 0.01048,-0.01633 0.01345,-0.03899 l 0.0077,-0.05906 0.09339,-0.0065 -0.0082,0.06202 q -0.0082,0.06251 -0.04748,0.103291 -0.03874,0.04026 -0.100842,0.0446 z m 0.0083,-0.334177 0.07252,-0.005 0.0099,-0.0758 q 0.0029,-0.02215 -0.0029,-0.03784 -0.0053,-0.01621 -0.02563,-0.01479 -0.01886,0.0013 -0.03008,0.01917 -0.01117,0.01736 -0.01394,0.03852 z m 0.17054,0.313884 0.09476,-0.72355 0.100342,-0.007 -0.09476,0.72355 z m 0.277779,-0.01258 q -0.06011,0.0042 -0.08916,-0.03327 -0.02898,-0.03797 -0.02092,-0.09949 l 0.03533,-0.269732 q 0.0081,-0.06152 0.04754,-0.103792 0.03957,-0.04275 0.09967,-0.04695 0.0596,-0.0041 0.0886,0.0338 0.02955,0.03744 0.0215,0.09897 l -0.03533,0.269732 q -0.0081,0.06152 -0.04812,0.104316 -0.03949,0.04226 -0.09911,0.04642 z m 0.01134,-0.08663 q 0.01938,-0.0014 0.02883,-0.01713 0.0096,-0.01627 0.01272,-0.04039 l 0.03533,-0.269732 q 0.0032,-0.02461 -0.0023,-0.03935 -0.0055,-0.01474 -0.02483,-0.01339 -0.01938,0.0014 -0.02882,0.01713 -0.0095,0.01578 -0.01272,0.0404 l -0.03533,0.269731 q -0.0032,0.02461 0.0023,0.03934 0.0055,0.01474 0.02483,0.01339 z m 0.138683,0.252704 0.09476,-0.72355 0.100342,-0.007 -0.0047,0.03544 q 0.02119,-0.01904 0.04373,-0.03329 0.02254,-0.01425 0.04141,-0.01557 0.02583,-0.0018 0.04066,0.01277 0.01538,0.01405 0.02067,0.03756 0.0058,0.0235 0.0024,0.04958 l -0.04499,0.343564 q -0.0034,0.02609 -0.01562,0.05132 -0.01213,0.02474 -0.03148,0.0412 -0.01939,0.01647 -0.04422,0.0182 -0.02086,0.0015 -0.03906,-0.01 -0.01813,-0.0119 -0.03476,-0.02781 l -0.02888,0.22051 z m 0.170574,-0.280148 q 0.01142,-7.97e-4 0.01728,-0.008 0.0063,-0.0072 0.0082,-0.02105 l 0.03958,-0.302217 q 0.0025,-0.0187 -0.0017,-0.02767 -0.0037,-0.0091 -0.01515,-0.0083 -0.01093,7.63e-4 -0.02407,0.01098 -0.0131,0.0097 -0.01496,0.02397 l -0.03958,0.302217 q -0.0016,0.01182 0.009,0.02131 0.01058,0.0095 0.0215,0.0087 z m 0.155693,0.07398 0.07052,-0.53848 0.100342,-0.007 -0.006,0.04529 q 0.02724,-0.02384 0.0491,-0.0405 0.02242,-0.01717 0.04131,-0.01849 0.02681,-0.0018 0.04083,0.01519 0.014,0.01706 0.01887,0.04014 0.0242,-0.02316 0.04956,-0.04395 0.02586,-0.02083 0.0497,-0.02249 0.02483,-0.0017 0.03966,0.01283 0.01483,0.01456 0.02012,0.03811 0.0052,0.02353 0.0019,0.04913 l -0.05776,0.441021 -0.09438,0.0066 0.05518,-0.421332 q 0.002,-0.01575 -0.005,-0.02159 -0.0067,-0.0058 -0.01804,-0.005 -0.01142,7.98e-4 -0.02303,0.01042 -0.01151,0.0091 -0.01809,0.01785 l -0.05557,0.424288 -0.09437,0.0066 0.05518,-0.421333 q 0.002,-0.01575 -0.005,-0.02159 -0.0067,-0.0058 -0.01804,-0.005 -0.01142,7.97e-4 -0.02302,0.01042 -0.01151,0.0091 -0.01808,0.01785 l -0.05557,0.424285 z m 0.591099,-0.03346 q -0.06011,0.0042 -0.08953,-0.03423 -0.02885,-0.03895 -0.02105,-0.0985 l 0.03545,-0.270716 q 0.0083,-0.063 0.04767,-0.104771 0.03943,-0.04176 0.101034,-0.04606 0.04024,-0.0028 0.06665,0.01338 0.02692,0.01616 0.0382,0.0466 0.01134,0.02993 0.0061,0.06981 l -0.0205,0.156523 -0.165915,0.01158 -0.01534,0.117147 q -0.0027,0.02018 0.004,0.03678 0.0072,0.01608 0.02563,0.01479 0.01938,-0.0014 0.02938,-0.01765 0.01048,-0.01633 0.01345,-0.03899 l 0.0077,-0.05906 0.09339,-0.0065 -0.0082,0.06202 q -0.0082,0.06251 -0.0475,0.103293 -0.03874,0.04025 -0.100839,0.04459 z m 0.0083,-0.334174 0.07252,-0.005 0.0099,-0.0758 q 0.0029,-0.02215 -0.0029,-0.03784 -0.0053,-0.01622 -0.02563,-0.01479 -0.01887,0.0013 -0.03008,0.01918 -0.01117,0.01736 -0.01394,0.03852 z m 0.165574,0.31423 0.07051,-0.538367 0.10034,-0.007 -0.006,0.04529 q 0.02014,-0.01847 0.04482,-0.03775 0.02473,-0.01976 0.04362,-0.02108 0.02483,-0.0017 0.03966,0.01283 0.01483,0.01456 0.02012,0.0381 0.0052,0.02353 0.0019,0.04913 l -0.05776,0.441021 -0.100314,0.007 0.05518,-0.421333 q 0.002,-0.01575 -0.0026,-0.02176 -0.0046,-0.006 -0.01754,-0.005 -0.01093,7.63e-4 -0.0199,0.0092 -0.0084,0.008 -0.01622,0.01869 l -0.05557,0.424286 z m 0.446063,-0.02335 q -0.04718,0.0033 -0.06932,-0.01564 -0.02213,-0.01895 -0.02653,-0.05667 -0.0039,-0.03777 0.003,-0.09092 l 0.03739,-0.285482 -0.05067,0.0036 0.01173,-0.08958 0.05067,-0.0036 0.01741,-0.132898 0.100342,-0.007 -0.01741,0.132897 0.06905,-0.0049 -0.01173,0.08958 -0.06905,0.0049 -0.03926,0.299758 q -0.0041,0.03149 0.0033,0.04609 0.0075,0.0141 0.02887,0.01262 0.0095,-6.61e-4 0.01657,-0.0026 0.0077,-0.002 0.01238,-0.0043 l -0.01192,0.09106 q -0.01041,0.0047 -0.0227,0.0079 -0.01181,0.0038 -0.03216,0.0051 z"
           id="path4"
           aria-label="a stress- and bloat-free Git workflow for modern web development"
           inkscape:label="tagline" />
      </g>
    </g>
  </g>
</svg>
